<svg width="1440" height="148" viewBox="0 0 1440 148" fill="none" xmlns="http://www.w3.org/2000/svg">
<g clip-path="url(#clip0_1474_156360)">
<g clip-path="url(#clip1_1474_156360)">
<rect width="1444" height="166" fill="#1DBF73"/>
<g clip-path="url(#clip2_1474_156360)">
<path d="M918.972 632.864L884.443 520.829C849.914 408.793 780.856 184.723 806.698 66.0297C832.54 -52.6636 953.282 -65.9798 1074.02 -79.296C1194.77 -92.6122 1315.51 -105.928 1357.21 -207.004C1398.33 -308.738 1361.89 -496.585 1403.01 -598.319C1444.72 -699.395 1565.46 -712.711 1625.83 -719.369L1686.2 -726.027L2018.35 -357.208L1981.7 -324.205C1945.06 -291.203 1871.77 -225.198 1798.47 -159.193C1725.18 -93.1885 1651.89 -27.1837 1578.6 38.821C1505.31 104.826 1432.02 170.831 1358.72 236.835C1285.43 302.84 1212.14 368.845 1138.85 434.85C1065.56 500.854 992.264 566.859 955.618 599.862L918.972 632.864Z" fill="#D9EFFF"/>
<path d="M1014.31 -0.31433C1078.5 -9.28301 1144.09 -8.3771 1208.01 2.26754C1203.9 8.9261 1200.06 15.7659 1196.44 22.7415C1238 25.6858 1279.06 36.2851 1316.82 53.9054C1312.89 61.8322 1308.92 69.7591 1304.99 77.6407C1324.05 86.4735 1343.11 95.3063 1362.18 104.139C1315.56 155.143 1283.17 219.146 1269.67 287C1247.49 271.464 1222.55 259.913 1196.35 253.119C1199.56 247.547 1202.81 241.976 1206.02 236.359C1185.51 232.871 1164.87 229.927 1144.23 227.526C1143.14 236.948 1142.06 246.37 1141.02 255.791C1095.13 236.495 1045.08 227.345 995.343 229.066C1015.04 154.554 988.974 72.5222 1014.31 -0.31433Z" fill="#FBEEC4"/>
<path d="M1213.07 260.549C1207.42 258.601 1201.73 256.88 1195.99 255.34C1199.2 249.768 1202.45 244.197 1205.66 238.58C1204.62 238.399 1203.54 238.218 1202.5 238.082C1205.48 235.273 1208.96 232.646 1211.31 229.521C1244.28 168.733 1276.53 110.119 1316.28 56.0356C1316.33 56.0809 1316.42 56.0809 1316.46 56.1262C1312.53 64.0531 1308.56 71.98 1304.63 79.8615C1306.84 80.9034 1309.06 81.8999 1311.22 82.9417C1259.5 129.461 1232.22 193.646 1213.07 260.549Z" fill="#FCC302"/>
<path d="M1140.84 216.293C1151.41 142.007 1174.22 71.7977 1202.36 3.71729C1204.12 3.98906 1205.89 4.26084 1207.6 4.53261C1203.49 11.1912 1199.65 18.0309 1196.04 25.0066C1202.59 25.4595 1209.14 26.139 1215.69 26.9996C1203.08 47.9718 1191.48 68.8082 1185.97 92.6793C1174.31 139.516 1165.05 185.356 1160.13 231.83C1154.71 231.105 1149.29 230.426 1143.82 229.791C1142.74 239.213 1141.65 248.635 1140.61 258.056C1139.35 257.513 1138.04 256.969 1136.77 256.471C1137.54 243.154 1138.76 229.746 1140.84 216.293Z" fill="#FCC302"/>
<path d="M1330.97 75.4678C1339.64 75.4678 1346.69 82.534 1346.69 91.2309C1346.69 99.9278 1330.97 115.827 1330.97 115.827C1330.97 115.827 1315.25 99.9278 1315.25 91.2309C1315.29 82.534 1322.34 75.4678 1330.97 75.4678ZM1330.97 98.7501C1335.48 98.7501 1339.14 95.0811 1339.14 90.5514C1339.14 86.0218 1335.48 82.3528 1330.97 82.3528C1326.45 82.3528 1322.79 86.0218 1322.79 90.5514C1322.79 95.0811 1326.45 98.7501 1330.97 98.7501Z" fill="#F06771"/>
<path d="M1265.07 25.6748C1271.12 25.6748 1276.05 30.6121 1276.05 36.6818C1276.05 42.7515 1265.07 53.8944 1265.07 53.8944C1265.07 53.8944 1254.09 42.7515 1254.09 36.6818C1254.09 30.6121 1259.02 25.6748 1265.07 25.6748ZM1265.07 41.9362C1268.23 41.9362 1270.81 39.3543 1270.81 36.1836C1270.81 33.0128 1268.23 30.4309 1265.07 30.4309C1261.91 30.4309 1259.33 33.0128 1259.33 36.1836C1259.38 39.3543 1261.91 41.9362 1265.07 41.9362Z" fill="#F06771"/>
<path d="M1294.11 113.694H1318.69C1322.8 113.694 1326.14 110.342 1326.14 106.22V47.2439C1326.14 43.122 1322.8 39.77 1318.69 39.77H1294.11C1290 39.77 1286.66 43.122 1286.66 47.2439V106.22C1286.62 110.342 1289.96 113.694 1294.11 113.694ZM1318.69 44.1638C1320.36 44.1638 1321.76 45.5227 1321.76 47.2439V106.22C1321.76 107.896 1320.4 109.3 1318.69 109.3H1294.11C1292.44 109.3 1291.04 107.941 1291.04 106.22V47.2439C1291.04 45.568 1292.4 44.1638 1294.11 44.1638H1318.69Z" fill="#6778A5"/>
<path d="M1295.01 39H1317.01V44.8885H1295.01V39Z" fill="#142B54"/>
<path d="M1278.76 72.9258H1333.01V182.543H1278.76V72.9258Z" fill="#142B54"/>
<path d="M1295.11 180.187H1332.42C1339.38 180.187 1345.02 174.525 1345.02 167.549V87.1934C1345.02 80.2177 1339.38 74.5557 1332.42 74.5557H1295.11C1288.15 74.5557 1282.51 80.2177 1282.51 87.1934V167.549C1282.51 174.479 1288.15 180.187 1295.11 180.187Z" fill="#FF890E"/>
<path d="M1283.54 167.507V87.1962C1283.54 80.9453 1288.06 75.7816 1294.02 74.7397C1299.99 75.7816 1304.5 80.9453 1304.5 87.1962V167.552C1304.5 173.803 1299.99 178.967 1294.02 180.009C1288.06 178.967 1283.54 173.758 1283.54 167.507Z" fill="#CF6029"/>
<path d="M1337.48 168.547C1337.48 169.317 1338.11 169.951 1338.88 169.951C1339.65 169.951 1340.28 169.317 1340.28 168.547V86.515C1340.28 85.745 1339.65 85.1108 1338.88 85.1108C1338.11 85.1108 1337.48 85.745 1337.48 86.515V168.547Z" fill="#CF6029"/>
<path d="M1329.57 168.547C1329.57 169.317 1330.2 169.951 1330.97 169.951C1331.74 169.951 1332.37 169.317 1332.37 168.547V86.5155C1332.37 85.7455 1331.74 85.1113 1330.97 85.1113C1330.2 85.1113 1329.57 85.7455 1329.57 86.5155V168.547Z" fill="#CF6029"/>
<path d="M1321.66 168.547C1321.66 169.317 1322.29 169.951 1323.06 169.951C1323.83 169.951 1324.46 169.317 1324.46 168.547V86.515C1324.46 85.745 1323.83 85.1108 1323.06 85.1108C1322.29 85.1108 1321.66 85.745 1321.66 86.515V168.547Z" fill="#CF6029"/>
<path d="M1313.77 168.547C1313.77 169.317 1314.4 169.951 1315.17 169.951C1315.93 169.951 1316.57 169.317 1316.57 168.547V86.515C1316.57 85.745 1315.93 85.1108 1315.17 85.1108C1314.4 85.1108 1313.77 85.745 1313.77 86.515V168.547Z" fill="#CF6029"/>
<path d="M1305.55 83.7518C1304.91 81.8946 1304.28 80.0374 1303.69 78.1803C1315.84 79.6298 1328.22 79.5845 1340.37 78.0444C1342.31 80.1281 1343.35 83.027 1343.22 85.8807C1342.9 84.1141 1341.41 82.8005 1339.74 82.2117C1338.07 81.6228 1336.26 81.6228 1334.5 81.6228C1327 81.6681 1319.46 81.7587 1311.96 81.804C1309.61 81.804 1306.99 81.9399 1305.55 83.7518Z" fill="#FCC302"/>
<path d="M1295.15 182C1297.09 182 1298.81 180.505 1299.62 178.874C1300.57 176.881 1300.57 174.616 1300.57 172.578L1300.39 92.1316C1300.39 88.5985 1300.39 84.6124 1298.76 81.1698C1297.23 77.8632 1293.66 74.919 1289.77 75.5984L1289.86 76.142C1293.48 75.5078 1296.82 78.3162 1298.27 81.4417C1299.8 84.7936 1299.85 88.6891 1299.85 92.1769L1300.03 172.623C1300.03 174.571 1300.03 176.79 1299.12 178.648C1298.31 180.324 1296.37 181.864 1294.38 181.365L1294.25 181.909C1294.56 182 1294.83 182 1295.15 182Z" fill="#142B54"/>
<path d="M1324.1 73.6967V48.6478C1324.15 46.7454 1323.29 44.7976 1321.8 43.6199C1320.31 42.3969 1318.28 41.944 1316.42 42.3516L1316.56 42.8952C1318.23 42.4875 1320.13 42.9405 1321.48 44.0276C1322.84 45.1147 1323.61 46.8813 1323.56 48.6478V73.6967H1324.1Z" fill="#142B54"/>
<path d="M1287.02 75.1469L1287.15 53.0876C1287.15 50.3245 1287.33 47.1991 1288.87 44.5719C1290.27 42.2165 1293.16 40.2687 1296.05 41.0841L1296.19 40.5405C1293.02 39.6799 1289.86 41.7636 1288.42 44.3002C1286.79 47.0632 1286.61 50.4604 1286.61 53.0876L1286.47 75.1469H1287.02Z" fill="#142B54"/>
<path d="M1295.38 39.9062H1316.75V40.4498H1295.38V39.9062Z" fill="#FBEEC4"/>
<path d="M1408.21 110.297C1409.79 110.297 1411.33 110.886 1412.54 111.928C1412.54 112.291 1412.54 112.608 1412.5 112.97C1407.94 113.106 1403.38 113.287 1398.81 113.423C1398.36 113.423 1397.86 113.468 1397.41 113.287C1396.96 113.151 1396.55 112.789 1396.51 112.291C1396.42 111.747 1396.83 111.249 1397.28 111.022C1397.77 110.796 1398.32 110.75 1398.86 110.75C1402.52 110.66 1404.46 110.252 1408.21 110.297Z" fill="white"/>
<path d="M1338.11 109.934C1336.53 109.934 1334.99 110.523 1333.77 111.565C1333.77 111.927 1333.77 112.244 1333.82 112.607C1338.38 112.743 1342.94 112.924 1347.5 113.06C1347.95 113.06 1348.45 113.105 1348.9 112.924C1349.35 112.788 1349.76 112.426 1349.81 111.927C1349.9 111.384 1349.49 110.885 1349.04 110.659C1348.54 110.432 1348 110.387 1347.46 110.387C1343.75 110.297 1341.81 109.889 1338.11 109.934Z" fill="white"/>
<path d="M1317.01 115.959C1318.36 114.329 1320.08 113.015 1322.02 111.973H1414.4C1416.39 112.607 1418.24 113.513 1419.86 114.691C1426.05 119.221 1426.86 127.283 1427.18 134.44C1427.68 146.127 1428.17 157.858 1428.72 169.545C1428.9 174.029 1429.03 178.785 1426.68 182.771C1425.24 185.172 1423.12 187.165 1420.59 188.705H1322.52C1322.38 188.615 1322.25 188.524 1322.11 188.388C1316.11 183.134 1314.21 175.252 1313.17 167.824C1311.32 154.552 1311.23 141.099 1312.9 127.827C1313.4 123.66 1314.16 119.311 1317.01 115.959Z" fill="#CF6029"/>
<path d="M1360.37 112.018C1363.49 117.272 1364.48 123.523 1365.43 129.548C1366.7 137.611 1367.92 145.673 1369.18 153.736C1365.48 153.827 1361.82 154.551 1358.34 155.865C1358.21 152.241 1357.44 148.618 1356.13 145.22C1352.06 144.903 1348 144.631 1343.98 144.314C1347.14 135.391 1349.13 126.015 1349.94 116.593C1353.73 116.004 1357.39 114.419 1360.37 112.018Z" fill="#BF3A3A"/>
<path d="M1419.77 114.964L1419.82 114.421C1391.14 112.654 1361.14 112.428 1322.52 113.651V114.194C1361.14 112.971 1391.14 113.198 1419.77 114.964Z" fill="white"/>
<path d="M1381.02 108.711C1381.38 109.572 1381.65 110.478 1381.78 111.384C1381.87 111.837 1381.83 112.38 1381.33 112.652C1380.97 112.833 1380.52 112.833 1380.07 112.833C1374.01 112.697 1367.96 112.607 1361.86 112.471C1361.68 110.568 1361.68 108.621 1361.86 106.718C1367.1 106.764 1372.34 106.809 1377.63 106.854C1378.26 106.854 1378.94 106.854 1379.48 107.081C1380.38 107.398 1380.74 108.077 1381.02 108.711Z" fill="#142B54"/>
<path d="M1388.92 102.234C1388.79 105.269 1388.7 108.259 1388.56 111.294C1377 110.478 1365.93 110.297 1354.32 110.841C1354.19 107.353 1353.46 103.865 1353.33 100.377C1353.28 99.2902 1354.5 98.4295 1355.86 98.5654C1366.11 99.6525 1376.41 100.241 1386.76 100.423C1388.02 100.468 1388.97 101.283 1388.92 102.234ZM1358.48 107.761C1367.38 107.851 1375.42 107.987 1384.36 108.078C1384.59 106.266 1384.41 104.635 1384.45 102.869C1375.51 102.551 1366.56 102.008 1357.62 101.193C1357.94 103.412 1358.21 105.586 1358.48 107.761Z" fill="#142B54"/>
<path d="M1358.52 98.2485C1366.88 99.2903 1375.28 99.9245 1383.68 100.196C1383.77 101.283 1383.77 102.37 1383.73 103.458C1375.42 103.095 1367.11 102.416 1358.84 101.465C1358.79 100.377 1358.66 99.3356 1358.52 98.2485Z" fill="#CF6029"/>
<path d="M1315.88 171.313C1314.12 156.184 1313.48 140.828 1315.56 125.699C1315.92 123.163 1316.33 120.626 1317.41 118.316C1318.5 116.006 1320.26 113.922 1322.61 113.016C1324.69 112.201 1327.49 112.654 1328.53 114.647C1329.02 115.644 1329.02 116.821 1328.98 117.908C1328.53 139.107 1329.52 160.351 1330.65 181.504C1330.74 183.135 1330.79 184.947 1329.79 186.261C1328.21 188.344 1324.91 188.072 1322.74 186.668C1320.31 185.128 1318.59 182.546 1317.6 179.828C1316.6 177.156 1316.24 174.212 1315.88 171.313Z" fill="#142B54"/>
<path d="M1414.13 111.653C1415.62 111.155 1417.33 111.382 1418.78 112.061C1420.23 112.741 1421.44 113.873 1422.39 115.141C1423.7 116.863 1424.61 118.856 1425.06 120.939C1424.34 120.985 1423.57 121.03 1422.85 121.075C1421.26 117.633 1418.01 115.051 1414.35 114.235C1414.44 113.375 1414.35 112.469 1414.13 111.653Z" fill="#FF890E"/>
<path d="M1331.69 113.872C1331.6 115.774 1331.51 117.676 1331.42 119.624C1330.7 119.579 1330.02 119.534 1329.3 119.488C1329.12 117.586 1328.12 115.729 1326.63 114.596C1325.1 113.419 1323.11 112.92 1321.21 113.283C1321.17 112.467 1321.12 111.652 1321.08 110.837C1323.52 110.791 1326 110.791 1328.44 110.746C1329.43 110.746 1330.56 110.791 1331.19 111.561C1331.74 112.15 1331.74 113.056 1331.69 113.872Z" fill="#FF890E"/>
<path d="M1322.07 186.485L1322.62 186.304C1320.58 180.234 1320.4 173.757 1320.22 167.506C1319.73 152.06 1319.23 136.025 1320 120.307C1320.09 118.676 1320.18 117.363 1320.63 116.094C1321.17 114.645 1322.12 113.558 1323.29 113.105L1323.11 112.606C1321.8 113.105 1320.72 114.328 1320.13 115.958C1319.59 117.408 1319.54 119.039 1319.45 120.352C1318.69 136.115 1319.18 152.105 1319.68 167.596C1319.82 173.802 1320 180.324 1322.07 186.485Z" fill="white"/>
<path d="M1382.19 129.275C1387.7 130.725 1393.12 132.491 1398.45 134.575C1398.14 138.425 1397.1 142.185 1395.38 145.673C1389.83 143.453 1383.91 142.275 1377.95 142.14C1380.34 138.289 1381.83 133.85 1382.19 129.275Z" fill="#99C2C4"/>
<path d="M1410.11 123.933C1410.88 121.713 1413.05 120.082 1415.39 119.992C1417.61 119.901 1419.73 121.17 1421 123.027C1422.26 124.839 1422.67 127.194 1422.4 129.368C1422.21 130.772 1421.76 132.267 1420.72 133.218C1419.64 134.215 1418.01 134.487 1416.57 134.215C1415.12 133.898 1413.81 133.083 1412.73 132.041C1410.56 129.957 1409.16 126.786 1410.11 123.933Z" fill="#FCC302"/>
<path d="M1419.64 139.65C1419.32 145.041 1418.65 150.431 1417.52 155.731C1414.85 154.87 1412.05 154.326 1409.25 154.19C1409.61 148.619 1409.79 143.048 1409.75 137.476C1413.05 138.201 1416.34 138.926 1419.64 139.65Z" fill="#D7E7FF"/>
<path d="M1386.61 136.795C1386.71 131.767 1386.16 126.739 1384.99 121.847C1391.95 121.847 1398.9 121.258 1405.77 120.081C1406.31 125.018 1406.85 130 1407.39 134.938C1400.48 135.527 1393.57 136.161 1386.61 136.795Z" fill="#FCC302"/>
<path d="M1357.8 116.41C1357.89 116.41 1357.98 116.364 1358.02 116.274C1359.56 113.601 1360.46 110.612 1360.64 107.532C1360.64 107.396 1360.55 107.26 1360.37 107.26C1360.24 107.26 1360.1 107.35 1360.1 107.532C1359.97 110.521 1359.06 113.465 1357.57 116.002C1357.48 116.138 1357.53 116.319 1357.66 116.364C1357.71 116.41 1357.75 116.41 1357.8 116.41Z" fill="#142B54"/>
<path d="M1352.24 117.586C1354.19 116.998 1355.99 116.092 1357.62 114.869C1358.66 115.865 1359.7 116.862 1360.74 117.858C1361.05 118.175 1361.41 118.492 1361.55 118.9C1361.73 119.398 1361.69 119.942 1361.59 120.485C1360.47 128.14 1359.79 135.841 1359.61 143.541C1356.49 142.862 1353.33 142.499 1350.17 142.409C1351.39 134.21 1350.57 125.74 1352.24 117.586ZM1356.94 117.722C1357.17 117.949 1357.53 118.039 1357.8 117.858C1358.12 117.677 1358.16 117.224 1358.07 116.862C1358.03 116.635 1357.94 116.363 1357.71 116.228C1357.53 116.137 1357.3 116.182 1357.12 116.273C1356.94 116.409 1356.85 116.59 1356.76 116.771C1356.72 117.134 1356.76 117.451 1356.94 117.722Z" fill="#D7E7FF"/>
<path d="M1357.67 116.77C1357.8 116.77 1357.94 116.634 1357.94 116.498C1358.08 113.373 1358.98 110.292 1360.61 107.62C1360.7 107.484 1360.65 107.303 1360.51 107.258C1360.38 107.167 1360.2 107.212 1360.15 107.348C1358.48 110.111 1357.53 113.282 1357.4 116.498C1357.4 116.634 1357.49 116.77 1357.67 116.77Z" fill="#142B54"/>
<path d="M1356.9 128.596C1358.57 127.509 1360.06 126.105 1361.28 124.474C1362.54 125.154 1363.85 125.788 1365.12 126.467C1365.53 126.694 1365.93 126.875 1366.2 127.237C1366.52 127.645 1366.61 128.234 1366.7 128.732C1367.74 136.387 1369.27 143.952 1371.26 151.425C1368.1 151.652 1364.94 152.196 1361.91 153.011C1360.78 144.767 1357.57 136.885 1356.9 128.596ZM1361.46 127.373C1361.73 127.554 1362.14 127.509 1362.32 127.282C1362.54 127.011 1362.45 126.603 1362.32 126.286C1362.23 126.059 1362.05 125.833 1361.78 125.788C1361.6 125.742 1361.37 125.833 1361.23 126.014C1361.1 126.195 1361.05 126.377 1361.05 126.603C1361.05 126.875 1361.19 127.192 1361.46 127.373Z" fill="#1DBF73"/>
<path d="M1362 126.286C1362.05 126.286 1362.05 126.286 1362.09 126.286C1362.23 126.241 1362.32 126.105 1362.27 125.924C1360.38 120.171 1360.15 113.739 1361.6 107.851C1361.64 107.715 1361.55 107.534 1361.42 107.534C1361.28 107.488 1361.1 107.579 1361.1 107.715C1359.61 113.694 1359.83 120.217 1361.78 126.105C1361.78 126.196 1361.87 126.286 1362 126.286Z" fill="#142B54"/>
<path d="M1361.19 122.707C1361.32 122.707 1361.46 122.617 1361.46 122.436C1361.91 117.589 1362.04 112.652 1361.82 107.76C1361.82 107.624 1361.68 107.488 1361.55 107.488C1361.41 107.488 1361.28 107.624 1361.28 107.76C1361.46 112.606 1361.37 117.498 1360.92 122.345C1360.87 122.571 1361.01 122.707 1361.19 122.707C1361.14 122.707 1361.19 122.707 1361.19 122.707Z" fill="#142B54"/>
<g clip-path="url(#clip3_1474_156360)">
<path d="M773 71.8619H857.695C857.695 71.8619 853.561 62.8113 843.449 64.0963C844.79 58.5095 825.963 42.9783 815.292 67.0572C815.292 67.0572 809.537 58.8447 800.599 67.9511C800.599 67.9511 793.783 63.5935 791.213 69.4596L773 71.8619Z" fill="white"/>
<mask id="mask0_1474_156360" style="mask-type:alpha" maskUnits="userSpaceOnUse" x="933" y="12" width="66" height="76">
<path d="M966.082 12.2022C969.825 12.2022 973.568 12.705 977.311 13.6548C984.741 15.4984 992.339 19.1857 996.25 26.1133C998.094 29.4095 998.932 33.1526 998.932 36.8957C998.932 37.0074 998.932 37.1192 998.932 37.2309C998.876 45.1641 996.473 52.818 992.172 59.4662L973.847 87.7352H966.137H958.428L940.103 59.4662C935.801 52.818 933.343 45.1641 933.343 37.2309C933.343 37.1192 933.343 37.0074 933.343 36.8957C933.343 27.7893 938.539 20.6382 946.528 16.6716C952.617 13.5989 959.322 12.1464 966.082 12.2022Z" fill="#C7534A"/>
</mask>
<g mask="url(#mask0_1474_156360)">
<path d="M966.082 12.2022C969.825 12.2022 973.568 12.705 977.311 13.6548C984.741 15.4984 992.339 19.1857 996.25 26.1133C998.094 29.4095 998.932 33.1526 998.932 36.8957C998.932 37.0074 998.932 37.1192 998.932 37.2309C998.876 45.1641 996.473 52.818 992.172 59.4662L973.847 87.7352H966.137H958.428L940.103 59.4662C935.801 52.818 933.343 45.1641 933.343 37.2309C933.343 37.1192 933.343 37.0074 933.343 36.8957C933.343 27.7893 938.539 20.6382 946.528 16.6716C952.617 13.5989 959.322 12.1464 966.082 12.2022Z" fill="#EB3441"/>
<path d="M968.538 10.3031C968.538 10.3031 970.996 46.5611 967.029 78.5733H970.773C970.773 78.5733 981.834 46.3377 977.309 9.40918L968.538 10.3031Z" fill="white"/>
<path d="M986.08 14.605C986.08 14.605 990.941 56.8409 973.175 78.5734H976.918C976.918 78.5734 1002.9 51.4776 995.075 19.1303L986.08 14.605Z" fill="white"/>
<path d="M962.001 10.3033C962.001 10.3033 956.75 48.7402 963.51 78.5735H959.767C959.767 78.5735 944.962 49.3548 954.459 9.74463L962.001 10.3033Z" fill="white"/>
<path d="M946.023 14.6055C946.023 14.6055 941.163 56.8414 958.929 78.5739H955.186C955.186 78.5739 929.207 51.4781 937.029 19.1307L946.023 14.6055Z" fill="white"/>
<path d="M981.054 78.5176H950.159L957.533 89.747L979.601 89.0766L981.054 78.5176Z" fill="#1A495C"/>
</g>
<path d="M965.411 95.3896H966.752H971.277C971.277 95.3896 970.719 98.4624 969.545 100.921C968.763 102.652 967.031 102.708 966.082 102.597C965.132 102.708 963.456 102.708 962.618 100.921C961.501 98.4624 960.886 95.3896 960.886 95.3896H965.411Z" fill="#1A495C"/>
<path d="M973.735 87.7358L970.774 95.3897" stroke="black" stroke-width="0.4506" stroke-miterlimit="10"/>
<path d="M958.54 87.7358L961.669 95.7807" stroke="black" stroke-width="0.4506" stroke-miterlimit="10"/>
<path d="M966.081 87.7358V95.3897" stroke="black" stroke-width="0.4506" stroke-miterlimit="10"/>
<mask id="mask1_1474_156360" style="mask-type:alpha" maskUnits="userSpaceOnUse" x="1019" y="75" width="29" height="33">
<path d="M1033.4 75.5904C1034.97 75.5904 1036.59 75.8139 1038.15 76.205C1041.28 76.9871 1044.52 78.5514 1046.14 81.4565C1046.92 82.8532 1047.26 84.4175 1047.26 85.9818C1047.26 86.0376 1047.26 86.0935 1047.26 86.1494C1047.26 89.5014 1046.2 92.7417 1044.41 95.5351L1036.64 107.435H1033.4H1030.16L1022.4 95.5351C1020.55 92.7417 1019.55 89.5014 1019.55 86.1494C1019.55 86.0935 1019.55 86.0376 1019.55 85.9818C1019.55 82.1269 1021.73 79.1101 1025.13 77.434C1027.7 76.1491 1030.55 75.5345 1033.4 75.5904Z" fill="#E9CA5C"/>
</mask>
<g mask="url(#mask1_1474_156360)">
<path d="M1033.4 75.5904C1034.97 75.5904 1036.59 75.8139 1038.15 76.205C1041.28 76.9871 1044.52 78.5514 1046.14 81.4565C1046.92 82.8532 1047.26 84.4175 1047.26 85.9818C1047.26 86.0376 1047.26 86.0935 1047.26 86.1494C1047.26 89.5014 1046.2 92.7417 1044.41 95.5351L1036.64 107.435H1033.4H1030.16L1022.4 95.5351C1020.55 92.7417 1019.55 89.5014 1019.55 86.1494C1019.55 86.0935 1019.55 86.0376 1019.55 85.9818C1019.55 82.1269 1021.73 79.1101 1025.13 77.434C1027.7 76.1491 1030.55 75.5345 1033.4 75.5904Z" fill="#F5D965"/>
<path d="M1034.41 74.7529C1034.41 74.7529 1035.41 90.0606 1033.79 103.581H1035.36C1035.36 103.581 1040.05 90.0047 1038.15 74.3618L1034.41 74.7529Z" fill="white"/>
<path d="M1041.84 76.54C1041.84 76.54 1043.9 94.3618 1036.36 103.524H1037.93C1037.93 103.524 1048.88 92.0712 1045.58 78.4395L1041.84 76.54Z" fill="white"/>
<path d="M1031.67 74.7523C1031.67 74.7523 1029.43 90.9539 1032.28 103.58H1030.72C1030.72 103.58 1024.46 91.2332 1028.48 74.5288L1031.67 74.7523Z" fill="white"/>
<path d="M1024.91 76.54C1024.91 76.54 1022.84 94.3618 1030.38 103.524H1028.82C1028.82 103.524 1017.87 92.0712 1021.16 78.4395L1024.91 76.54Z" fill="white"/>
<path d="M1039.71 103.58H1026.64L1029.77 108.329L1039.1 107.994L1039.71 103.58Z" fill="#1A495C"/>
</g>
<path d="M1033.12 110.675H1033.68H1035.58C1035.58 110.675 1035.36 111.96 1034.86 113.022C1034.52 113.748 1033.79 113.748 1033.4 113.748C1033.01 113.804 1032.29 113.804 1031.95 113.022C1031.45 111.96 1031.22 110.675 1031.22 110.675H1033.12Z" fill="#1A495C"/>
<path d="M1036.64 107.435L1035.36 110.675" stroke="black" stroke-width="0.190966" stroke-miterlimit="10"/>
<path d="M1030.22 107.435L1031.45 110.675" stroke="black" stroke-width="0.190966" stroke-miterlimit="10"/>
<path d="M1033.4 107.435V110.675" stroke="black" stroke-width="0.190966" stroke-miterlimit="10"/>
<mask id="mask2_1474_156360" style="mask-type:alpha" maskUnits="userSpaceOnUse" x="879" y="115" width="37" height="42">
<path d="M897.141 115.312C899.208 115.312 901.219 115.591 903.231 116.094C907.253 117.099 911.443 119.111 913.566 122.91C914.572 124.697 915.019 126.765 915.019 128.776C915.019 128.832 915.019 128.888 915.019 128.943C915.019 133.245 913.678 137.435 911.331 141.067L901.331 156.486H897.141H892.951L882.951 141.067C880.604 137.435 879.263 133.245 879.263 128.943C879.263 128.888 879.263 128.832 879.263 128.776C879.263 123.804 882.113 119.949 886.47 117.77C889.822 116.094 893.454 115.256 897.141 115.312Z" fill="#437870"/>
</mask>
<g mask="url(#mask2_1474_156360)">
<path d="M897.141 115.312C899.208 115.312 901.219 115.591 903.231 116.094C907.253 117.099 911.443 119.111 913.566 122.91C914.572 124.697 915.019 126.765 915.019 128.776C915.019 128.832 915.019 128.888 915.019 128.943C915.019 133.245 913.678 137.435 911.331 141.067L901.331 156.486H897.141H892.951L882.951 141.067C880.604 137.435 879.263 133.245 879.263 128.943C879.263 128.888 879.263 128.832 879.263 128.776C879.263 123.804 882.113 119.949 886.47 117.77C889.822 116.094 893.454 115.256 897.141 115.312Z" fill="#4ACC8F"/>
<path d="M898.483 114.25C898.483 114.25 899.824 134.027 897.645 151.458H899.656C899.656 151.458 905.69 133.859 903.232 113.747L898.483 114.25Z" fill="white"/>
<path d="M908.091 116.597C908.091 116.597 910.717 139.67 901.052 151.458H903.119C903.119 151.458 917.309 136.653 913.007 119.055L908.091 116.597Z" fill="white"/>
<path d="M894.905 114.249C894.905 114.249 892.056 135.2 895.743 151.457H893.732C893.732 151.457 885.687 135.535 890.827 113.914L894.905 114.249Z" fill="white"/>
<path d="M886.19 116.596C886.19 116.596 883.564 139.669 893.229 151.457H891.162C891.162 151.457 876.972 136.652 881.274 119.054L886.19 116.596Z" fill="white"/>
</g>
</g>
</g>
</g>
<path d="M147.926 48.6307C147.831 47.589 147.41 46.7794 146.662 46.2017C145.923 45.6146 144.867 45.321 143.494 45.321C142.585 45.321 141.828 45.4394 141.222 45.6761C140.616 45.9129 140.161 46.2396 139.858 46.6562C139.555 47.0634 139.399 47.5322 139.389 48.0625C139.37 48.4981 139.455 48.8816 139.645 49.2131C139.844 49.5445 140.128 49.8381 140.497 50.0938C140.876 50.34 141.33 50.5578 141.861 50.7472C142.391 50.9366 142.988 51.1023 143.651 51.2443L146.151 51.8125C147.59 52.125 148.859 52.5417 149.957 53.0625C151.065 53.5833 151.993 54.2036 152.741 54.9233C153.499 55.643 154.072 56.4716 154.46 57.4091C154.848 58.3466 155.047 59.3977 155.057 60.5625C155.047 62.3996 154.583 63.9763 153.665 65.2926C152.746 66.6089 151.425 67.6174 149.702 68.3182C147.988 69.0189 145.919 69.3693 143.494 69.3693C141.061 69.3693 138.939 69.0047 137.131 68.2756C135.322 67.5464 133.916 66.4384 132.912 64.9517C131.908 63.465 131.392 61.5852 131.364 59.3125H138.097C138.153 60.25 138.404 61.0312 138.849 61.6562C139.295 62.2812 139.905 62.7547 140.682 63.0767C141.468 63.3987 142.377 63.5597 143.409 63.5597C144.356 63.5597 145.161 63.4318 145.824 63.1761C146.496 62.9205 147.012 62.5653 147.372 62.1108C147.732 61.6562 147.917 61.1354 147.926 60.5483C147.917 59.9991 147.746 59.5303 147.415 59.142C147.083 58.7443 146.572 58.4034 145.881 58.1193C145.199 57.8258 144.328 57.5559 143.267 57.3097L140.227 56.5994C137.708 56.0218 135.724 55.089 134.276 53.8011C132.827 52.5038 132.107 50.7519 132.116 48.5455C132.107 46.7462 132.59 45.1695 133.565 43.8153C134.541 42.4612 135.89 41.4053 137.614 40.6477C139.337 39.8902 141.302 39.5114 143.509 39.5114C145.762 39.5114 147.718 39.8949 149.375 40.6619C151.042 41.4195 152.334 42.4848 153.253 43.858C154.171 45.2311 154.64 46.822 154.659 48.6307H147.926ZM168.807 69.4119C166.525 69.4119 164.555 68.9621 162.898 68.0625C161.25 67.1534 159.981 65.8608 159.091 64.1847C158.21 62.4991 157.77 60.4962 157.77 58.1761C157.77 55.9223 158.215 53.9527 159.105 52.267C159.995 50.572 161.25 49.2557 162.869 48.3182C164.489 47.3712 166.397 46.8977 168.594 46.8977C170.147 46.8977 171.567 47.1392 172.855 47.6222C174.143 48.1051 175.256 48.8201 176.193 49.767C177.131 50.714 177.86 51.8835 178.381 53.2756C178.902 54.6581 179.162 56.2443 179.162 58.0341V59.767H160.199V55.733H172.699C172.689 54.9943 172.514 54.3362 172.173 53.7585C171.832 53.1809 171.364 52.7311 170.767 52.4091C170.18 52.0777 169.503 51.9119 168.736 51.9119C167.959 51.9119 167.263 52.0871 166.648 52.4375C166.032 52.7784 165.545 53.2472 165.185 53.8438C164.825 54.4309 164.635 55.0985 164.616 55.8466V59.9517C164.616 60.8419 164.792 61.6231 165.142 62.2955C165.492 62.9583 165.99 63.4744 166.634 63.8438C167.277 64.2131 168.045 64.3977 168.935 64.3977C169.55 64.3977 170.109 64.3125 170.611 64.142C171.113 63.9716 171.544 63.7206 171.903 63.3892C172.263 63.0578 172.533 62.6506 172.713 62.1676L179.091 62.3523C178.826 63.7822 178.243 65.0275 177.344 66.0881C176.454 67.1392 175.284 67.9583 173.835 68.5455C172.386 69.1231 170.71 69.4119 168.807 69.4119ZM192.908 69.4119C190.626 69.4119 188.656 68.9621 186.999 68.0625C185.352 67.1534 184.083 65.8608 183.192 64.1847C182.312 62.4991 181.871 60.4962 181.871 58.1761C181.871 55.9223 182.317 53.9527 183.207 52.267C184.097 50.572 185.352 49.2557 186.971 48.3182C188.59 47.3712 190.498 46.8977 192.695 46.8977C194.248 46.8977 195.669 47.1392 196.957 47.6222C198.245 48.1051 199.357 48.8201 200.295 49.767C201.232 50.714 201.961 51.8835 202.482 53.2756C203.003 54.6581 203.263 56.2443 203.263 58.0341V59.767H184.3V55.733H196.8C196.791 54.9943 196.616 54.3362 196.275 53.7585C195.934 53.1809 195.465 52.7311 194.869 52.4091C194.281 52.0777 193.604 51.9119 192.837 51.9119C192.061 51.9119 191.365 52.0871 190.749 52.4375C190.134 52.7784 189.646 53.2472 189.286 53.8438C188.926 54.4309 188.737 55.0985 188.718 55.8466V59.9517C188.718 60.8419 188.893 61.6231 189.244 62.2955C189.594 62.9583 190.091 63.4744 190.735 63.8438C191.379 64.2131 192.146 64.3977 193.036 64.3977C193.652 64.3977 194.21 64.3125 194.712 64.142C195.214 63.9716 195.645 63.7206 196.005 63.3892C196.365 63.0578 196.635 62.6506 196.815 62.1676L203.192 62.3523C202.927 63.7822 202.345 65.0275 201.445 66.0881C200.555 67.1392 199.386 67.9583 197.937 68.5455C196.488 69.1231 194.812 69.4119 192.908 69.4119ZM224.553 69.4403C222.507 69.4403 220.741 69.0758 219.254 68.3466C217.777 67.6174 216.641 66.6373 215.845 65.4062C215.05 64.1657 214.652 62.7879 214.652 61.2727C214.652 60.1553 214.87 59.1705 215.305 58.3182C215.75 57.4564 216.361 56.6657 217.138 55.946C217.924 55.2169 218.838 54.5019 219.879 53.8011L225.987 49.8949C226.679 49.4593 227.166 49 227.45 48.517C227.744 48.0341 227.891 47.5511 227.891 47.0682C227.891 46.5473 227.687 46.0739 227.28 45.6477C226.882 45.2216 226.29 45.0133 225.504 45.0227C225.002 45.0227 224.567 45.1269 224.197 45.3352C223.828 45.5436 223.539 45.8229 223.331 46.1733C223.132 46.5237 223.033 46.9214 223.033 47.3665C223.033 47.9441 223.198 48.536 223.53 49.142C223.861 49.7481 224.306 50.392 224.865 51.0739C225.433 51.7557 226.063 52.5085 226.754 53.3324L240.689 69H233.615L221.953 56.3438C221.29 55.6051 220.594 54.7765 219.865 53.858C219.136 52.9394 218.52 51.9356 218.018 50.8466C217.517 49.7481 217.266 48.5549 217.266 47.267C217.266 45.8182 217.607 44.5066 218.288 43.3324C218.97 42.1581 219.927 41.2254 221.158 40.5341C222.398 39.8333 223.842 39.483 225.49 39.483C227.081 39.483 228.454 39.8097 229.609 40.4631C230.765 41.1165 231.655 41.983 232.28 43.0625C232.905 44.142 233.217 45.3258 233.217 46.6136C233.217 47.9773 232.881 49.232 232.209 50.3778C231.536 51.5142 230.585 52.5227 229.354 53.4034L223.374 57.679C222.739 58.1335 222.242 58.6212 221.882 59.142C221.522 59.6534 221.342 60.2121 221.342 60.8182C221.342 61.4432 221.489 61.9877 221.783 62.4517C222.086 62.9157 222.512 63.2803 223.061 63.5455C223.61 63.8106 224.254 63.9432 224.993 63.9432C225.978 63.9432 226.963 63.7112 227.947 63.2472C228.932 62.7737 229.832 62.1108 230.646 61.2585C231.461 60.3968 232.114 59.3788 232.607 58.2045C233.099 57.0208 233.345 55.7235 233.345 54.3125H238.942C238.942 56.0549 238.757 57.6742 238.388 59.1705C238.018 60.6572 237.464 61.9924 236.726 63.1761C235.997 64.3504 235.092 65.3258 234.013 66.1023C233.672 66.2917 233.34 66.4716 233.018 66.642C232.696 66.8125 232.365 66.9924 232.024 67.1818C230.907 67.9867 229.695 68.5644 228.388 68.9148C227.09 69.2652 225.812 69.4403 224.553 69.4403ZM262.173 69H251.42V39.9091H262.159C265.123 39.9091 267.675 40.4915 269.815 41.6562C271.965 42.8116 273.622 44.4782 274.787 46.6562C275.952 48.8248 276.534 51.4195 276.534 54.4403C276.534 57.4706 275.952 60.0748 274.787 62.2528C273.632 64.4309 271.979 66.1023 269.83 67.267C267.68 68.4223 265.128 69 262.173 69ZM258.452 63.0057H261.903C263.532 63.0057 264.91 62.7311 266.037 62.1818C267.173 61.6231 268.03 60.7188 268.608 59.4688C269.195 58.2093 269.489 56.5331 269.489 54.4403C269.489 52.3475 269.195 50.6809 268.608 49.4403C268.021 48.1903 267.154 47.2907 266.009 46.7415C264.872 46.1828 263.471 45.9034 261.804 45.9034H258.452V63.0057ZM290.824 69.4119C288.532 69.4119 286.563 68.9432 284.915 68.0057C283.277 67.0587 282.012 65.7424 281.122 64.0568C280.241 62.3617 279.801 60.3968 279.801 58.1619C279.801 55.9176 280.241 53.9527 281.122 52.267C282.012 50.572 283.277 49.2557 284.915 48.3182C286.563 47.3712 288.532 46.8977 290.824 46.8977C293.116 46.8977 295.08 47.3712 296.719 48.3182C298.366 49.2557 299.631 50.572 300.511 52.267C301.402 53.9527 301.847 55.9176 301.847 58.1619C301.847 60.3968 301.402 62.3617 300.511 64.0568C299.631 65.7424 298.366 67.0587 296.719 68.0057C295.08 68.9432 293.116 69.4119 290.824 69.4119ZM290.866 64.1705C291.7 64.1705 292.405 63.9148 292.983 63.4034C293.561 62.892 294.001 62.1818 294.304 61.2727C294.616 60.3636 294.773 59.3125 294.773 58.1193C294.773 56.9072 294.616 55.8466 294.304 54.9375C294.001 54.0284 293.561 53.3182 292.983 52.8068C292.405 52.2955 291.7 52.0398 290.866 52.0398C290.005 52.0398 289.276 52.2955 288.679 52.8068C288.092 53.3182 287.642 54.0284 287.33 54.9375C287.027 55.8466 286.875 56.9072 286.875 58.1193C286.875 59.3125 287.027 60.3636 287.33 61.2727C287.642 62.1818 288.092 62.892 288.679 63.4034C289.276 63.9148 290.005 64.1705 290.866 64.1705Z" fill="white"/>
<path opacity="0.8" d="M131.598 115V100.455H133.793V113.111H140.384V115H131.598ZM147.312 115.22C146.289 115.22 145.397 114.986 144.634 114.517C143.872 114.048 143.28 113.393 142.859 112.55C142.437 111.707 142.227 110.722 142.227 109.595C142.227 108.464 142.437 107.474 142.859 106.626C143.28 105.779 143.872 105.121 144.634 104.652C145.397 104.183 146.289 103.949 147.312 103.949C148.335 103.949 149.227 104.183 149.989 104.652C150.752 105.121 151.344 105.779 151.765 106.626C152.186 107.474 152.397 108.464 152.397 109.595C152.397 110.722 152.186 111.707 151.765 112.55C151.344 113.393 150.752 114.048 149.989 114.517C149.227 114.986 148.335 115.22 147.312 115.22ZM147.319 113.438C147.982 113.438 148.531 113.262 148.967 112.912C149.402 112.562 149.724 112.095 149.933 111.513C150.146 110.93 150.252 110.289 150.252 109.588C150.252 108.892 150.146 108.253 149.933 107.67C149.724 107.083 149.402 106.612 148.967 106.257C148.531 105.902 147.982 105.724 147.319 105.724C146.651 105.724 146.097 105.902 145.657 106.257C145.221 106.612 144.897 107.083 144.684 107.67C144.476 108.253 144.371 108.892 144.371 109.588C144.371 110.289 144.476 110.93 144.684 111.513C144.897 112.095 145.221 112.562 145.657 112.912C146.097 113.262 146.651 113.438 147.319 113.438ZM159.363 115.22C158.34 115.22 157.447 114.986 156.685 114.517C155.923 114.048 155.331 113.393 154.909 112.55C154.488 111.707 154.277 110.722 154.277 109.595C154.277 108.464 154.488 107.474 154.909 106.626C155.331 105.779 155.923 105.121 156.685 104.652C157.447 104.183 158.34 103.949 159.363 103.949C160.385 103.949 161.278 104.183 162.04 104.652C162.802 105.121 163.394 105.779 163.816 106.626C164.237 107.474 164.448 108.464 164.448 109.595C164.448 110.722 164.237 111.707 163.816 112.55C163.394 113.393 162.802 114.048 162.04 114.517C161.278 114.986 160.385 115.22 159.363 115.22ZM159.37 113.438C160.033 113.438 160.582 113.262 161.017 112.912C161.453 112.562 161.775 112.095 161.983 111.513C162.196 110.93 162.303 110.289 162.303 109.588C162.303 108.892 162.196 108.253 161.983 107.67C161.775 107.083 161.453 106.612 161.017 106.257C160.582 105.902 160.033 105.724 159.37 105.724C158.702 105.724 158.148 105.902 157.708 106.257C157.272 106.612 156.948 107.083 156.735 107.67C156.526 108.253 156.422 108.892 156.422 109.588C156.422 110.289 156.526 110.93 156.735 111.513C156.948 112.095 157.272 112.562 157.708 112.912C158.148 113.262 158.702 113.438 159.37 113.438ZM168.771 111.3L168.757 108.707H169.126L173.473 104.091H176.016L171.058 109.347H170.724L168.771 111.3ZM166.818 115V100.455H168.942V115H166.818ZM173.707 115L169.801 109.815L171.264 108.331L176.314 115H173.707ZM188.436 104.091V105.795H182.271V104.091H188.436ZM183.961 115V102.827C183.961 102.145 184.11 101.579 184.409 101.129C184.707 100.675 185.102 100.336 185.595 100.114C186.087 99.8864 186.622 99.7727 187.2 99.7727C187.626 99.7727 187.991 99.8082 188.294 99.8793C188.597 99.9455 188.822 100.007 188.968 100.064L188.471 101.783C188.372 101.754 188.244 101.721 188.088 101.683C187.931 101.641 187.742 101.619 187.52 101.619C187.003 101.619 186.634 101.747 186.412 102.003C186.194 102.259 186.085 102.628 186.085 103.111V115H183.961ZM194.792 115.22C193.77 115.22 192.877 114.986 192.115 114.517C191.352 114.048 190.761 113.393 190.339 112.55C189.918 111.707 189.707 110.722 189.707 109.595C189.707 108.464 189.918 107.474 190.339 106.626C190.761 105.779 191.352 105.121 192.115 104.652C192.877 104.183 193.77 103.949 194.792 103.949C195.815 103.949 196.708 104.183 197.47 104.652C198.232 105.121 198.824 105.779 199.245 106.626C199.667 107.474 199.877 108.464 199.877 109.595C199.877 110.722 199.667 111.707 199.245 112.55C198.824 113.393 198.232 114.048 197.47 114.517C196.708 114.986 195.815 115.22 194.792 115.22ZM194.799 113.438C195.462 113.438 196.011 113.262 196.447 112.912C196.883 112.562 197.205 112.095 197.413 111.513C197.626 110.93 197.733 110.289 197.733 109.588C197.733 108.892 197.626 108.253 197.413 107.67C197.205 107.083 196.883 106.612 196.447 106.257C196.011 105.902 195.462 105.724 194.799 105.724C194.132 105.724 193.578 105.902 193.137 106.257C192.702 106.612 192.377 107.083 192.164 107.67C191.956 108.253 191.852 108.892 191.852 109.588C191.852 110.289 191.956 110.93 192.164 111.513C192.377 112.095 192.702 112.562 193.137 112.912C193.578 113.262 194.132 113.438 194.799 113.438ZM202.248 115V104.091H204.3V105.824H204.414C204.613 105.237 204.963 104.775 205.465 104.439C205.972 104.098 206.545 103.928 207.184 103.928C207.317 103.928 207.473 103.932 207.653 103.942C207.837 103.951 207.982 103.963 208.086 103.977V106.009C208.001 105.985 207.849 105.959 207.631 105.93C207.414 105.897 207.196 105.881 206.978 105.881C206.476 105.881 206.029 105.987 205.636 106.2C205.247 106.409 204.94 106.7 204.712 107.074C204.485 107.443 204.371 107.865 204.371 108.338V115H202.248ZM220.408 104.091V105.795H214.244V104.091H220.408ZM215.934 115V102.827C215.934 102.145 216.083 101.579 216.381 101.129C216.68 100.675 217.075 100.336 217.567 100.114C218.06 99.8864 218.595 99.7727 219.173 99.7727C219.599 99.7727 219.963 99.8082 220.266 99.8793C220.569 99.9455 220.794 100.007 220.941 100.064L220.444 101.783C220.344 101.754 220.217 101.721 220.06 101.683C219.904 101.641 219.715 101.619 219.492 101.619C218.976 101.619 218.607 101.747 218.384 102.003C218.166 102.259 218.058 102.628 218.058 103.111V115H215.934ZM225.442 115.241C224.751 115.241 224.126 115.114 223.567 114.858C223.008 114.598 222.566 114.221 222.239 113.729C221.917 113.236 221.756 112.633 221.756 111.918C221.756 111.302 221.874 110.795 222.111 110.398C222.348 110 222.667 109.685 223.07 109.453C223.472 109.221 223.922 109.046 224.419 108.928C224.917 108.809 225.423 108.719 225.939 108.658C226.593 108.582 227.123 108.52 227.53 108.473C227.937 108.421 228.233 108.338 228.418 108.224C228.603 108.111 228.695 107.926 228.695 107.67V107.621C228.695 107 228.52 106.52 228.169 106.179C227.824 105.838 227.308 105.668 226.621 105.668C225.906 105.668 225.343 105.826 224.931 106.143C224.524 106.456 224.242 106.804 224.086 107.188L222.09 106.733C222.327 106.07 222.672 105.535 223.127 105.128C223.586 104.716 224.114 104.418 224.711 104.233C225.307 104.044 225.935 103.949 226.593 103.949C227.028 103.949 227.49 104.001 227.978 104.105C228.47 104.205 228.929 104.389 229.355 104.659C229.786 104.929 230.139 105.315 230.414 105.817C230.688 106.314 230.826 106.96 230.826 107.756V115H228.752V113.509H228.667C228.529 113.783 228.323 114.053 228.049 114.318C227.774 114.583 227.421 114.804 226.99 114.979C226.56 115.154 226.043 115.241 225.442 115.241ZM225.904 113.537C226.491 113.537 226.993 113.421 227.409 113.189C227.831 112.957 228.15 112.654 228.368 112.28C228.591 111.901 228.702 111.496 228.702 111.065V109.659C228.626 109.735 228.48 109.806 228.262 109.872C228.049 109.934 227.805 109.988 227.53 110.036C227.256 110.078 226.988 110.118 226.728 110.156C226.467 110.189 226.249 110.218 226.074 110.241C225.662 110.294 225.286 110.381 224.945 110.504C224.609 110.627 224.339 110.805 224.135 111.037C223.936 111.264 223.837 111.567 223.837 111.946C223.837 112.472 224.031 112.869 224.419 113.139C224.808 113.404 225.302 113.537 225.904 113.537ZM233.654 115V104.091H235.692V105.866H235.827C236.055 105.265 236.426 104.796 236.942 104.46C237.459 104.119 238.076 103.949 238.796 103.949C239.525 103.949 240.136 104.119 240.629 104.46C241.126 104.801 241.493 105.27 241.729 105.866H241.843C242.103 105.284 242.518 104.82 243.086 104.474C243.654 104.124 244.331 103.949 245.117 103.949C246.107 103.949 246.914 104.259 247.539 104.879C248.169 105.5 248.484 106.435 248.484 107.685V115H246.36V107.884C246.36 107.145 246.159 106.61 245.756 106.278C245.354 105.947 244.873 105.781 244.315 105.781C243.623 105.781 243.086 105.994 242.702 106.42C242.319 106.842 242.127 107.384 242.127 108.047V115H240.011V107.749C240.011 107.157 239.826 106.681 239.457 106.321C239.087 105.961 238.607 105.781 238.015 105.781C237.612 105.781 237.241 105.888 236.9 106.101C236.564 106.309 236.291 106.6 236.083 106.974C235.879 107.348 235.778 107.782 235.778 108.274V115H233.654ZM255.925 115.22C254.902 115.22 254.01 114.986 253.248 114.517C252.485 114.048 251.893 113.393 251.472 112.55C251.051 111.707 250.84 110.722 250.84 109.595C250.84 108.464 251.051 107.474 251.472 106.626C251.893 105.779 252.485 105.121 253.248 104.652C254.01 104.183 254.902 103.949 255.925 103.949C256.948 103.949 257.84 104.183 258.603 104.652C259.365 105.121 259.957 105.779 260.378 106.626C260.8 107.474 261.01 108.464 261.01 109.595C261.01 110.722 260.8 111.707 260.378 112.55C259.957 113.393 259.365 114.048 258.603 114.517C257.84 114.986 256.948 115.22 255.925 115.22ZM255.932 113.438C256.595 113.438 257.144 113.262 257.58 112.912C258.016 112.562 258.337 112.095 258.546 111.513C258.759 110.93 258.865 110.289 258.865 109.588C258.865 108.892 258.759 108.253 258.546 107.67C258.337 107.083 258.016 106.612 257.58 106.257C257.144 105.902 256.595 105.724 255.932 105.724C255.265 105.724 254.711 105.902 254.27 106.257C253.835 106.612 253.51 107.083 253.297 107.67C253.089 108.253 252.985 108.892 252.985 109.588C252.985 110.289 253.089 110.93 253.297 111.513C253.51 112.095 253.835 112.562 254.27 112.912C254.711 113.262 255.265 113.438 255.932 113.438ZM270.291 110.476V104.091H272.422V115H270.334V113.111H270.22C269.969 113.693 269.567 114.179 269.013 114.567C268.464 114.95 267.779 115.142 266.96 115.142C266.259 115.142 265.639 114.988 265.099 114.68C264.564 114.368 264.143 113.906 263.835 113.295C263.532 112.685 263.381 111.929 263.381 111.03V104.091H265.504V110.774C265.504 111.518 265.71 112.109 266.122 112.55C266.534 112.99 267.069 113.21 267.727 113.21C268.125 113.21 268.52 113.111 268.913 112.912C269.311 112.713 269.64 112.412 269.901 112.01C270.166 111.607 270.296 111.096 270.291 110.476ZM283.45 106.754L281.525 107.095C281.445 106.849 281.317 106.615 281.142 106.392C280.971 106.17 280.739 105.987 280.446 105.845C280.152 105.703 279.785 105.632 279.345 105.632C278.743 105.632 278.242 105.767 277.839 106.037C277.437 106.302 277.235 106.645 277.235 107.067C277.235 107.431 277.37 107.725 277.64 107.947C277.91 108.17 278.346 108.352 278.947 108.494L280.68 108.892C281.684 109.124 282.432 109.482 282.924 109.964C283.417 110.447 283.663 111.075 283.663 111.847C283.663 112.5 283.474 113.082 283.095 113.594C282.721 114.1 282.198 114.498 281.525 114.787C280.858 115.076 280.083 115.22 279.203 115.22C277.981 115.22 276.984 114.96 276.213 114.439C275.441 113.913 274.967 113.168 274.792 112.202L276.845 111.889C276.973 112.424 277.235 112.829 277.633 113.104C278.031 113.374 278.549 113.509 279.189 113.509C279.885 113.509 280.441 113.364 280.858 113.075C281.274 112.782 281.483 112.424 281.483 112.003C281.483 111.662 281.355 111.375 281.099 111.143C280.848 110.911 280.462 110.736 279.941 110.618L278.095 110.213C277.077 109.981 276.324 109.612 275.836 109.105C275.353 108.598 275.112 107.957 275.112 107.18C275.112 106.536 275.292 105.973 275.652 105.49C276.011 105.007 276.509 104.631 277.143 104.361C277.778 104.086 278.504 103.949 279.324 103.949C280.502 103.949 281.431 104.205 282.108 104.716C282.785 105.223 283.232 105.902 283.45 106.754ZM293.414 100.455V115H291.291V100.455H293.414ZM299.446 115.241C298.755 115.241 298.13 115.114 297.571 114.858C297.012 114.598 296.57 114.221 296.243 113.729C295.921 113.236 295.76 112.633 295.76 111.918C295.76 111.302 295.878 110.795 296.115 110.398C296.352 110 296.671 109.685 297.074 109.453C297.476 109.221 297.926 109.046 298.423 108.928C298.92 108.809 299.427 108.719 299.943 108.658C300.597 108.582 301.127 108.52 301.534 108.473C301.941 108.421 302.237 108.338 302.422 108.224C302.607 108.111 302.699 107.926 302.699 107.67V107.621C302.699 107 302.524 106.52 302.173 106.179C301.828 105.838 301.312 105.668 300.625 105.668C299.91 105.668 299.347 105.826 298.935 106.143C298.527 106.456 298.246 106.804 298.089 107.188L296.094 106.733C296.33 106.07 296.676 105.535 297.131 105.128C297.59 104.716 298.118 104.418 298.714 104.233C299.311 104.044 299.938 103.949 300.597 103.949C301.032 103.949 301.494 104.001 301.982 104.105C302.474 104.205 302.933 104.389 303.359 104.659C303.79 104.929 304.143 105.315 304.418 105.817C304.692 106.314 304.83 106.96 304.83 107.756V115H302.756V113.509H302.67C302.533 113.783 302.327 114.053 302.053 114.318C301.778 114.583 301.425 114.804 300.994 114.979C300.563 115.154 300.047 115.241 299.446 115.241ZM299.908 113.537C300.495 113.537 300.997 113.421 301.413 113.189C301.835 112.957 302.154 112.654 302.372 112.28C302.595 111.901 302.706 111.496 302.706 111.065V109.659C302.63 109.735 302.483 109.806 302.266 109.872C302.053 109.934 301.809 109.988 301.534 110.036C301.259 110.078 300.992 110.118 300.732 110.156C300.471 110.189 300.253 110.218 300.078 110.241C299.666 110.294 299.29 110.381 298.949 110.504C298.613 110.627 298.343 110.805 298.139 111.037C297.94 111.264 297.841 111.567 297.841 111.946C297.841 112.472 298.035 112.869 298.423 113.139C298.812 113.404 299.306 113.537 299.908 113.537ZM309.782 108.523V115H307.658V104.091H309.696V105.866H309.831C310.082 105.289 310.475 104.825 311.01 104.474C311.55 104.124 312.23 103.949 313.049 103.949C313.792 103.949 314.443 104.105 315.002 104.418C315.56 104.725 315.994 105.185 316.301 105.795C316.609 106.406 316.763 107.161 316.763 108.061V115H314.64V108.317C314.64 107.526 314.434 106.908 314.022 106.463C313.61 106.013 313.044 105.788 312.324 105.788C311.832 105.788 311.394 105.895 311.01 106.108C310.632 106.321 310.331 106.634 310.108 107.045C309.891 107.453 309.782 107.945 309.782 108.523ZM323.695 115.213C322.814 115.213 322.028 114.988 321.337 114.538C320.65 114.084 320.111 113.437 319.718 112.599C319.329 111.757 319.135 110.746 319.135 109.567C319.135 108.388 319.332 107.379 319.725 106.541C320.123 105.703 320.667 105.062 321.358 104.616C322.05 104.171 322.833 103.949 323.709 103.949C324.386 103.949 324.931 104.062 325.343 104.29C325.759 104.512 326.081 104.773 326.309 105.071C326.541 105.369 326.721 105.632 326.848 105.859H326.976V100.455H329.1V115H327.026V113.303H326.848C326.721 113.535 326.536 113.8 326.294 114.098C326.058 114.396 325.731 114.657 325.314 114.879C324.898 115.102 324.358 115.213 323.695 115.213ZM324.164 113.402C324.775 113.402 325.291 113.241 325.712 112.919C326.138 112.592 326.46 112.14 326.678 111.562C326.9 110.985 327.012 110.312 327.012 109.545C327.012 108.788 326.903 108.125 326.685 107.557C326.467 106.989 326.148 106.546 325.726 106.229C325.305 105.911 324.784 105.753 324.164 105.753C323.525 105.753 322.992 105.919 322.566 106.25C322.14 106.581 321.818 107.034 321.6 107.607C321.387 108.179 321.28 108.826 321.28 109.545C321.28 110.275 321.389 110.93 321.607 111.513C321.825 112.095 322.147 112.557 322.573 112.898C323.004 113.234 323.534 113.402 324.164 113.402ZM332.131 115V104.091H334.169V105.866H334.304C334.531 105.265 334.903 104.796 335.419 104.46C335.935 104.119 336.553 103.949 337.273 103.949C338.002 103.949 338.613 104.119 339.105 104.46C339.602 104.801 339.969 105.27 340.206 105.866H340.32C340.58 105.284 340.994 104.82 341.562 104.474C342.131 104.124 342.808 103.949 343.594 103.949C344.583 103.949 345.391 104.259 346.016 104.879C346.645 105.5 346.96 106.435 346.96 107.685V115H344.837V107.884C344.837 107.145 344.635 106.61 344.233 106.278C343.83 105.947 343.35 105.781 342.791 105.781C342.1 105.781 341.562 105.994 341.179 106.42C340.795 106.842 340.604 107.384 340.604 108.047V115H338.487V107.749C338.487 107.157 338.303 106.681 337.933 106.321C337.564 105.961 337.083 105.781 336.491 105.781C336.089 105.781 335.717 105.888 335.376 106.101C335.04 106.309 334.768 106.6 334.56 106.974C334.356 107.348 334.254 107.782 334.254 108.274V115H332.131ZM352.981 115.241C352.29 115.241 351.665 115.114 351.106 114.858C350.547 114.598 350.105 114.221 349.778 113.729C349.456 113.236 349.295 112.633 349.295 111.918C349.295 111.302 349.413 110.795 349.65 110.398C349.887 110 350.207 109.685 350.609 109.453C351.011 109.221 351.461 109.046 351.958 108.928C352.456 108.809 352.962 108.719 353.478 108.658C354.132 108.582 354.662 108.52 355.069 108.473C355.476 108.421 355.772 108.338 355.957 108.224C356.142 108.111 356.234 107.926 356.234 107.67V107.621C356.234 107 356.059 106.52 355.708 106.179C355.363 105.838 354.847 105.668 354.16 105.668C353.445 105.668 352.882 105.826 352.47 106.143C352.063 106.456 351.781 106.804 351.625 107.188L349.629 106.733C349.866 106.07 350.211 105.535 350.666 105.128C351.125 104.716 351.653 104.418 352.25 104.233C352.846 104.044 353.474 103.949 354.132 103.949C354.567 103.949 355.029 104.001 355.517 104.105C356.009 104.205 356.468 104.389 356.895 104.659C357.325 104.929 357.678 105.315 357.953 105.817C358.227 106.314 358.365 106.96 358.365 107.756V115H356.291V113.509H356.206C356.068 113.783 355.862 114.053 355.588 114.318C355.313 114.583 354.96 114.804 354.529 114.979C354.099 115.154 353.583 115.241 352.981 115.241ZM353.443 113.537C354.03 113.537 354.532 113.421 354.949 113.189C355.37 112.957 355.69 112.654 355.907 112.28C356.13 111.901 356.241 111.496 356.241 111.065V109.659C356.165 109.735 356.019 109.806 355.801 109.872C355.588 109.934 355.344 109.988 355.069 110.036C354.795 110.078 354.527 110.118 354.267 110.156C354.006 110.189 353.788 110.218 353.613 110.241C353.201 110.294 352.825 110.381 352.484 110.504C352.148 110.627 351.878 110.805 351.674 111.037C351.475 111.264 351.376 111.567 351.376 111.946C351.376 112.472 351.57 112.869 351.958 113.139C352.347 113.404 352.842 113.537 353.443 113.537ZM361.193 115V104.091H363.246V105.824H363.359C363.558 105.237 363.909 104.775 364.411 104.439C364.917 104.098 365.49 103.928 366.129 103.928C366.262 103.928 366.418 103.932 366.598 103.942C366.783 103.951 366.927 103.963 367.031 103.977V106.009C366.946 105.985 366.795 105.959 366.577 105.93C366.359 105.897 366.141 105.881 365.923 105.881C365.421 105.881 364.974 105.987 364.581 106.2C364.193 106.409 363.885 106.7 363.658 107.074C363.43 107.443 363.317 107.865 363.317 108.338V115H361.193ZM370.822 111.3L370.808 108.707H371.177L375.524 104.091H378.066L373.109 109.347H372.775L370.822 111.3ZM368.869 115V100.455H370.993V115H368.869ZM375.758 115L371.852 109.815L373.315 108.331L378.365 115H375.758ZM388.176 106.754L386.252 107.095C386.171 106.849 386.043 106.615 385.868 106.392C385.698 106.17 385.466 105.987 385.172 105.845C384.879 105.703 384.512 105.632 384.071 105.632C383.47 105.632 382.968 105.767 382.566 106.037C382.163 106.302 381.962 106.645 381.962 107.067C381.962 107.431 382.097 107.725 382.367 107.947C382.637 108.17 383.072 108.352 383.674 108.494L385.407 108.892C386.41 109.124 387.158 109.482 387.651 109.964C388.143 110.447 388.39 111.075 388.39 111.847C388.39 112.5 388.2 113.082 387.821 113.594C387.447 114.1 386.924 114.498 386.252 114.787C385.584 115.076 384.81 115.22 383.929 115.22C382.708 115.22 381.711 114.96 380.939 114.439C380.167 113.913 379.694 113.168 379.519 112.202L381.571 111.889C381.699 112.424 381.962 112.829 382.36 113.104C382.757 113.374 383.276 113.509 383.915 113.509C384.611 113.509 385.167 113.364 385.584 113.075C386.001 112.782 386.209 112.424 386.209 112.003C386.209 111.662 386.081 111.375 385.826 111.143C385.575 110.911 385.189 110.736 384.668 110.618L382.821 110.213C381.803 109.981 381.051 109.612 380.563 109.105C380.08 108.598 379.838 107.957 379.838 107.18C379.838 106.536 380.018 105.973 380.378 105.49C380.738 105.007 381.235 104.631 381.87 104.361C382.504 104.086 383.231 103.949 384.05 103.949C385.229 103.949 386.157 104.205 386.834 104.716C387.511 105.223 387.959 105.902 388.176 106.754ZM399.192 115.241C398.501 115.241 397.876 115.114 397.317 114.858C396.758 114.598 396.316 114.221 395.989 113.729C395.667 113.236 395.506 112.633 395.506 111.918C395.506 111.302 395.624 110.795 395.861 110.398C396.098 110 396.417 109.685 396.82 109.453C397.222 109.221 397.672 109.046 398.169 108.928C398.667 108.809 399.173 108.719 399.689 108.658C400.343 108.582 400.873 108.52 401.28 108.473C401.687 108.421 401.983 108.338 402.168 108.224C402.353 108.111 402.445 107.926 402.445 107.67V107.621C402.445 107 402.27 106.52 401.919 106.179C401.574 105.838 401.058 105.668 400.371 105.668C399.656 105.668 399.093 105.826 398.681 106.143C398.274 106.456 397.992 106.804 397.836 107.188L395.84 106.733C396.077 106.07 396.422 105.535 396.877 105.128C397.336 104.716 397.864 104.418 398.461 104.233C399.057 104.044 399.685 103.949 400.343 103.949C400.778 103.949 401.24 104.001 401.728 104.105C402.22 104.205 402.679 104.389 403.105 104.659C403.536 104.929 403.889 105.315 404.164 105.817C404.438 106.314 404.576 106.96 404.576 107.756V115H402.502V113.509H402.417C402.279 113.783 402.073 114.053 401.799 114.318C401.524 114.583 401.171 114.804 400.74 114.979C400.31 115.154 399.793 115.241 399.192 115.241ZM399.654 113.537C400.241 113.537 400.743 113.421 401.159 113.189C401.581 112.957 401.9 112.654 402.118 112.28C402.341 111.901 402.452 111.496 402.452 111.065V109.659C402.376 109.735 402.23 109.806 402.012 109.872C401.799 109.934 401.555 109.988 401.28 110.036C401.006 110.078 400.738 110.118 400.478 110.156C400.217 110.189 399.999 110.218 399.824 110.241C399.412 110.294 399.036 110.381 398.695 110.504C398.359 110.627 398.089 110.805 397.885 111.037C397.686 111.264 397.587 111.567 397.587 111.946C397.587 112.472 397.781 112.869 398.169 113.139C398.558 113.404 399.052 113.537 399.654 113.537ZM409.528 108.523V115H407.404V104.091H409.442V105.866H409.577C409.828 105.289 410.221 104.825 410.756 104.474C411.296 104.124 411.976 103.949 412.795 103.949C413.538 103.949 414.189 104.105 414.748 104.418C415.307 104.725 415.74 105.185 416.048 105.795C416.355 106.406 416.509 107.161 416.509 108.061V115H414.386V108.317C414.386 107.526 414.18 106.908 413.768 106.463C413.356 106.013 412.79 105.788 412.07 105.788C411.578 105.788 411.14 105.895 410.756 106.108C410.378 106.321 410.077 106.634 409.854 107.045C409.637 107.453 409.528 107.945 409.528 108.523ZM423.441 115.213C422.56 115.213 421.774 114.988 421.083 114.538C420.397 114.084 419.857 113.437 419.464 112.599C419.076 111.757 418.881 110.746 418.881 109.567C418.881 108.388 419.078 107.379 419.471 106.541C419.869 105.703 420.413 105.062 421.104 104.616C421.796 104.171 422.579 103.949 423.455 103.949C424.132 103.949 424.677 104.062 425.089 104.29C425.505 104.512 425.827 104.773 426.055 105.071C426.287 105.369 426.467 105.632 426.594 105.859H426.722V100.455H428.846V115H426.772V113.303H426.594C426.467 113.535 426.282 113.8 426.04 114.098C425.804 114.396 425.477 114.657 425.06 114.879C424.644 115.102 424.104 115.213 423.441 115.213ZM423.91 113.402C424.521 113.402 425.037 113.241 425.458 112.919C425.884 112.592 426.206 112.14 426.424 111.562C426.647 110.985 426.758 110.312 426.758 109.545C426.758 108.788 426.649 108.125 426.431 107.557C426.213 106.989 425.894 106.546 425.472 106.229C425.051 105.911 424.53 105.753 423.91 105.753C423.271 105.753 422.738 105.919 422.312 106.25C421.886 106.581 421.564 107.034 421.346 107.607C421.133 108.179 421.026 108.826 421.026 109.545C421.026 110.275 421.135 110.93 421.353 111.513C421.571 112.095 421.893 112.557 422.319 112.898C422.75 113.234 423.28 113.402 423.91 113.402ZM437.17 119.091V104.091H439.244V105.859H439.421C439.544 105.632 439.722 105.369 439.954 105.071C440.186 104.773 440.508 104.512 440.92 104.29C441.332 104.062 441.876 103.949 442.553 103.949C443.434 103.949 444.22 104.171 444.911 104.616C445.603 105.062 446.145 105.703 446.538 106.541C446.935 107.379 447.134 108.388 447.134 109.567C447.134 110.746 446.938 111.757 446.545 112.599C446.152 113.437 445.612 114.084 444.925 114.538C444.239 114.988 443.455 115.213 442.575 115.213C441.912 115.213 441.37 115.102 440.948 114.879C440.531 114.657 440.205 114.396 439.968 114.098C439.731 113.8 439.549 113.535 439.421 113.303H439.293V119.091H437.17ZM439.251 109.545C439.251 110.312 439.362 110.985 439.585 111.562C439.807 112.14 440.129 112.592 440.55 112.919C440.972 113.241 441.488 113.402 442.099 113.402C442.733 113.402 443.263 113.234 443.69 112.898C444.116 112.557 444.438 112.095 444.656 111.513C444.878 110.93 444.989 110.275 444.989 109.545C444.989 108.826 444.88 108.179 444.663 107.607C444.45 107.034 444.128 106.581 443.697 106.25C443.271 105.919 442.738 105.753 442.099 105.753C441.483 105.753 440.962 105.911 440.536 106.229C440.115 106.546 439.795 106.989 439.577 107.557C439.36 108.125 439.251 108.788 439.251 109.545ZM451.637 100.455V115H449.513V100.455H451.637ZM457.669 115.241C456.977 115.241 456.352 115.114 455.794 114.858C455.235 114.598 454.792 114.221 454.466 113.729C454.144 113.236 453.983 112.633 453.983 111.918C453.983 111.302 454.101 110.795 454.338 110.398C454.574 110 454.894 109.685 455.297 109.453C455.699 109.221 456.149 109.046 456.646 108.928C457.143 108.809 457.65 108.719 458.166 108.658C458.819 108.582 459.35 108.52 459.757 108.473C460.164 108.421 460.46 108.338 460.645 108.224C460.829 108.111 460.922 107.926 460.922 107.67V107.621C460.922 107 460.746 106.52 460.396 106.179C460.05 105.838 459.534 105.668 458.848 105.668C458.133 105.668 457.569 105.826 457.157 106.143C456.75 106.456 456.468 106.804 456.312 107.188L454.316 106.733C454.553 106.07 454.899 105.535 455.353 105.128C455.813 104.716 456.341 104.418 456.937 104.233C457.534 104.044 458.161 103.949 458.819 103.949C459.255 103.949 459.717 104.001 460.204 104.105C460.697 104.205 461.156 104.389 461.582 104.659C462.013 104.929 462.366 105.315 462.64 105.817C462.915 106.314 463.052 106.96 463.052 107.756V115H460.978V113.509H460.893C460.756 113.783 460.55 114.053 460.275 114.318C460.001 114.583 459.648 114.804 459.217 114.979C458.786 115.154 458.27 115.241 457.669 115.241ZM458.13 113.537C458.717 113.537 459.219 113.421 459.636 113.189C460.057 112.957 460.377 112.654 460.595 112.28C460.817 111.901 460.929 111.496 460.929 111.065V109.659C460.853 109.735 460.706 109.806 460.488 109.872C460.275 109.934 460.031 109.988 459.757 110.036C459.482 110.078 459.215 110.118 458.954 110.156C458.694 110.189 458.476 110.218 458.301 110.241C457.889 110.294 457.512 110.381 457.172 110.504C456.835 110.627 456.565 110.805 456.362 111.037C456.163 111.264 456.064 111.567 456.064 111.946C456.064 112.472 456.258 112.869 456.646 113.139C457.034 113.404 457.529 113.537 458.13 113.537ZM470.476 115.22C469.42 115.22 468.511 114.981 467.749 114.503C466.991 114.02 466.409 113.355 466.001 112.507C465.594 111.66 465.391 110.689 465.391 109.595C465.391 108.487 465.599 107.509 466.016 106.662C466.432 105.81 467.019 105.144 467.777 104.666C468.535 104.188 469.427 103.949 470.455 103.949C471.283 103.949 472.022 104.103 472.67 104.411C473.319 104.714 473.842 105.14 474.24 105.689C474.643 106.238 474.882 106.88 474.957 107.614H472.891C472.777 107.102 472.517 106.662 472.109 106.293C471.707 105.923 471.167 105.739 470.49 105.739C469.898 105.739 469.38 105.895 468.935 106.207C468.494 106.515 468.151 106.955 467.905 107.528C467.659 108.097 467.536 108.769 467.536 109.545C467.536 110.341 467.656 111.027 467.898 111.605C468.139 112.183 468.48 112.63 468.92 112.947C469.366 113.265 469.889 113.423 470.49 113.423C470.893 113.423 471.257 113.35 471.584 113.203C471.915 113.052 472.192 112.836 472.415 112.557C472.642 112.277 472.801 111.941 472.891 111.548H474.957C474.882 112.254 474.652 112.884 474.268 113.438C473.885 113.991 473.371 114.427 472.727 114.744C472.088 115.062 471.338 115.22 470.476 115.22ZM481.93 115.22C480.855 115.22 479.93 114.991 479.153 114.531C478.381 114.067 477.785 113.416 477.363 112.578C476.947 111.735 476.738 110.748 476.738 109.616C476.738 108.499 476.947 107.514 477.363 106.662C477.785 105.81 478.372 105.144 479.125 104.666C479.882 104.188 480.768 103.949 481.781 103.949C482.396 103.949 482.993 104.051 483.571 104.254C484.148 104.458 484.667 104.777 485.126 105.213C485.585 105.649 485.948 106.214 486.213 106.911C486.478 107.602 486.61 108.442 486.61 109.432V110.185H477.939V108.594H484.529C484.529 108.035 484.416 107.54 484.189 107.109C483.961 106.674 483.642 106.33 483.23 106.08C482.823 105.829 482.344 105.703 481.795 105.703C481.199 105.703 480.678 105.85 480.233 106.143C479.792 106.432 479.451 106.811 479.21 107.28C478.973 107.744 478.855 108.248 478.855 108.793V110.036C478.855 110.765 478.983 111.385 479.238 111.896C479.499 112.408 479.861 112.798 480.325 113.068C480.789 113.333 481.331 113.466 481.951 113.466C482.354 113.466 482.721 113.409 483.052 113.295C483.384 113.177 483.67 113.002 483.912 112.77C484.153 112.538 484.338 112.251 484.466 111.911L486.475 112.273C486.315 112.865 486.026 113.383 485.609 113.828C485.197 114.268 484.679 114.612 484.054 114.858C483.433 115.099 482.725 115.22 481.93 115.22ZM497.141 106.754L495.217 107.095C495.136 106.849 495.008 106.615 494.833 106.392C494.663 106.17 494.431 105.987 494.137 105.845C493.844 105.703 493.477 105.632 493.036 105.632C492.435 105.632 491.933 105.767 491.531 106.037C491.128 106.302 490.927 106.645 490.927 107.067C490.927 107.431 491.062 107.725 491.332 107.947C491.602 108.17 492.037 108.352 492.638 108.494L494.371 108.892C495.375 109.124 496.123 109.482 496.616 109.964C497.108 110.447 497.354 111.075 497.354 111.847C497.354 112.5 497.165 113.082 496.786 113.594C496.412 114.1 495.889 114.498 495.217 114.787C494.549 115.076 493.775 115.22 492.894 115.22C491.673 115.22 490.676 114.96 489.904 114.439C489.132 113.913 488.659 113.168 488.484 112.202L490.536 111.889C490.664 112.424 490.927 112.829 491.325 113.104C491.722 113.374 492.241 113.509 492.88 113.509C493.576 113.509 494.132 113.364 494.549 113.075C494.966 112.782 495.174 112.424 495.174 112.003C495.174 111.662 495.046 111.375 494.79 111.143C494.54 110.911 494.154 110.736 493.633 110.618L491.786 110.213C490.768 109.981 490.015 109.612 489.528 109.105C489.045 108.598 488.803 107.957 488.803 107.18C488.803 106.536 488.983 105.973 489.343 105.49C489.703 105.007 490.2 104.631 490.835 104.361C491.469 104.086 492.196 103.949 493.015 103.949C494.194 103.949 495.122 104.205 495.799 104.716C496.476 105.223 496.924 105.902 497.141 106.754ZM501.088 115.135C500.7 115.135 500.366 114.998 500.087 114.723C499.808 114.444 499.668 114.107 499.668 113.714C499.668 113.326 499.808 112.995 500.087 112.72C500.366 112.441 500.7 112.301 501.088 112.301C501.477 112.301 501.81 112.441 502.09 112.72C502.369 112.995 502.509 113.326 502.509 113.714C502.509 113.975 502.443 114.214 502.31 114.432C502.182 114.645 502.012 114.815 501.799 114.943C501.586 115.071 501.349 115.135 501.088 115.135Z" fill="white"/>
</g>
<defs>
<clipPath id="clip0_1474_156360">
<rect width="1440" height="148" fill="white"/>
</clipPath>
<clipPath id="clip1_1474_156360">
<rect width="1440" height="164" fill="white"/>
</clipPath>
<clipPath id="clip2_1474_156360">
<rect width="1479.48" height="329.388" fill="white" transform="translate(745 -147.498) rotate(-1.29756)"/>
</clipPath>
<clipPath id="clip3_1474_156360">
<rect width="603" height="664" fill="white" transform="matrix(-1 0 0 1 1375 -425)"/>
</clipPath>
</defs>
</svg>
