<svg width="578" height="366" viewBox="0 0 578 366" fill="none" xmlns="http://www.w3.org/2000/svg">
<rect width="578" height="366" rx="16" fill="#3FAEFF"/>
<g clip-path="url(#clip0_1049_148429)">
<path opacity="0.64" d="M665.5 17C552.6 17 461 108.6 461 221.5C461 222.7 461 223.9 461 225.1H869.9C869.9 223.9 869.9 222.7 869.9 221.5C870 108.6 778.4 17 665.5 17Z" fill="url(#paint0_linear_1049_148429)"/>
<path opacity="0.64" d="M-189.5 -22C-302.4 -22 -394 69.6 -394 182.5C-394 183.7 -394 184.9 -394 186.1H14.9C14.9 184.9 14.9 183.7 14.9 182.5C15 69.6 -76.6 -22 -189.5 -22Z" fill="url(#paint1_linear_1049_148429)"/>
<path d="M-56.8 45C-138.6 45 -205 111.3 -205 193.2C-205 194.1 -205 194.9 -205 195.8H91.3C91.3 194.9 91.3 194.1 91.3 193.2C91.4 111.4 25 45 -56.8 45Z" fill="#2BA14E"/>
<path d="M-92.9002 186.101C-92.9002 186.101 -98.2002 174.501 -89.6002 166.401C-81.0002 158.301 -79.5002 159.001 -76.3002 152.401C-73.1002 145.801 -70.3002 138.501 -64.1002 136.901C-58.0002 135.301 -52.5002 137.801 -47.8002 137.401C-41.9002 136.901 -40.3002 133.001 -32.3002 131.501C-24.6002 130.101 -19.1002 136.001 -15.8002 142.301C-12.5002 148.701 -14.5002 148.801 -5.10021 151.001C4.29979 153.101 6.99981 160.001 7.69981 166.401C8.39981 172.601 18.7998 169.801 13.7998 186.101H-92.9002Z" fill="url(#paint2_linear_1049_148429)"/>
<path d="M10.8998 175.9L-27.2002 186.1" stroke="white" stroke-width="0.5" stroke-miterlimit="10"/>
<path d="M60.5 113.598C60.5 113.598 60.9 104.398 66.5 104.398C72.2 104.398 73.9 113.598 73.9 113.598" stroke="white" stroke-width="0.3911" stroke-miterlimit="10"/>
<path d="M88.2002 159.698H46.2002L51.5002 111.398H82.9002L88.2002 159.698Z" fill="white"/>
<path d="M78.8 111.398L73.5 159.698H88.2L82.9 111.398H78.8Z" fill="#1359DE"/>
<path d="M71.9 113.598C71.9 113.598 71.5 104.398 65.9 104.398C60.2 104.398 58.5 113.598 58.5 113.598" stroke="white" stroke-width="0.3911" stroke-miterlimit="10"/>
<path d="M46.2 171.701C47.5 171.701 48.5 172.701 48.5 174.001C48.5 175.301 47.5 176.301 46.2 176.301C44.9 176.301 43.9 175.301 43.9 174.001C43.9 172.801 44.9 171.701 46.2 171.701ZM46.2 169.801C43.9 169.801 42 171.701 42 174.001C42 176.301 43.9 178.201 46.2 178.201C48.5 178.201 50.4 176.301 50.4 174.001C50.4 171.701 48.5 169.801 46.2 169.801Z" fill="white"/>
<path d="M50.8002 168L47.2002 174.6C46.7002 175.5 45.2002 175.2 45.2002 174.1V168H50.8002Z" fill="#0B317A"/>
<path d="M84.3992 171.701C85.6992 171.701 86.6992 172.701 86.6992 174.001C86.6992 175.301 85.6992 176.301 84.3992 176.301C83.0992 176.301 82.0992 175.301 82.0992 174.001C82.0992 172.801 83.0992 171.701 84.3992 171.701ZM84.3992 169.801C82.0992 169.801 80.1992 171.701 80.1992 174.001C80.1992 176.301 82.0992 178.201 84.3992 178.201C86.6992 178.201 88.5992 176.301 88.5992 174.001C88.5992 171.701 86.6992 169.801 84.3992 169.801Z" fill="white"/>
<path d="M88.9994 168L85.3994 174.6C84.8994 175.5 83.3994 175.2 83.3994 174.1V168H88.9994Z" fill="#0B317A"/>
<path d="M90.5992 161.6H43.8992C43.4992 161.6 43.0992 161.3 42.9992 160.9L33.4992 118.1C33.3992 117.8 33.4992 117.5 33.6992 117.3C33.8992 117.1 34.1992 116.9 34.3992 116.9H100.199C100.499 116.9 100.799 117 100.899 117.3C101.099 117.5 101.199 117.8 101.099 118.1L91.5992 160.9C91.3992 161.3 90.9992 161.6 90.5992 161.6ZM44.5992 159.7H89.7992L98.8992 118.8H35.3992L44.5992 159.7Z" fill="#0B317A"/>
<path d="M34.3996 119C33.9996 119 33.5996 118.7 33.4996 118.3L31.3996 109C30.5996 105.5 27.4996 103 23.8996 103H12.5996C12.0996 103 11.5996 102.6 11.5996 102C11.5996 101.5 11.9996 101 12.5996 101H23.8996C28.3996 101 32.2996 104.1 33.2996 108.5L35.3996 117.8C35.4996 118.3 35.1996 118.8 34.6996 118.9C34.4996 119 34.3996 119 34.3996 119Z" fill="#0B317A"/>
<path d="M92.7996 168.899H43.1996C40.6996 168.899 38.5996 166.799 38.5996 164.299C38.5996 161.799 40.6996 159.699 43.1996 159.699H90.5996C91.0996 159.699 91.5996 160.099 91.5996 160.699C91.5996 161.199 91.1996 161.699 90.5996 161.699H43.1996C41.6996 161.699 40.4996 162.899 40.4996 164.399C40.4996 165.899 41.6996 167.099 43.1996 167.099H92.7996C93.2996 167.099 93.7996 167.499 93.7996 168.099C93.7996 168.499 93.2996 168.899 92.7996 168.899Z" fill="#0B317A"/>
<path d="M43.5994 160.899C43.4994 160.899 43.3994 160.799 43.3994 160.699V117.899C43.3994 117.799 43.4994 117.699 43.5994 117.699C43.6994 117.699 43.7994 117.799 43.7994 117.899V160.699C43.8994 160.799 43.7994 160.899 43.5994 160.899Z" fill="#0B317A"/>
<path d="M55.3992 160.899C55.2992 160.899 55.1992 160.799 55.1992 160.699V117.899C55.1992 117.799 55.2992 117.699 55.3992 117.699C55.4992 117.699 55.5992 117.799 55.5992 117.899V160.699C55.6992 160.799 55.5992 160.899 55.3992 160.899Z" fill="#0B317A"/>
<path d="M67.199 160.899C67.099 160.899 66.999 160.799 66.999 160.699V117.899C66.999 117.799 67.099 117.699 67.199 117.699C67.299 117.699 67.399 117.799 67.399 117.899V160.699C67.499 160.799 67.399 160.899 67.199 160.899Z" fill="#0B317A"/>
<path d="M78.9998 160.899C78.8998 160.899 78.7998 160.799 78.7998 160.699V117.899C78.7998 117.799 78.8998 117.699 78.9998 117.699C79.0998 117.699 79.1998 117.799 79.1998 117.899V160.699C79.2998 160.799 79.1998 160.899 78.9998 160.899Z" fill="#0B317A"/>
<path d="M90.7996 160.899C90.6996 160.899 90.5996 160.799 90.5996 160.699V117.899C90.5996 117.799 90.6996 117.699 90.7996 117.699C90.8996 117.699 90.9996 117.799 90.9996 117.899V160.699C91.0996 160.799 90.9996 160.899 90.7996 160.899Z" fill="#0B317A"/>
<path d="M98.4998 125.099H35.9998C35.8998 125.099 35.7998 124.999 35.7998 124.899C35.7998 124.799 35.8998 124.699 35.9998 124.699H98.5998C98.6998 124.699 98.7998 124.799 98.7998 124.899C98.7998 124.999 98.5998 125.099 98.4998 125.099Z" fill="#0B317A"/>
<path d="M96.2994 136.9H38.0994C37.9994 136.9 37.8994 136.8 37.8994 136.7C37.8994 136.6 37.9994 136.5 38.0994 136.5H96.2994C96.3994 136.5 96.4994 136.6 96.4994 136.7C96.5994 136.8 96.4994 136.9 96.2994 136.9Z" fill="#0B317A"/>
<path d="M93.8994 148.699H40.5994C40.4994 148.699 40.3994 148.599 40.3994 148.499C40.3994 148.399 40.4994 148.299 40.5994 148.299H93.8994C93.9994 148.299 94.0994 148.399 94.0994 148.499C94.0994 148.599 93.9994 148.699 93.8994 148.699Z" fill="#0B317A"/>
<path d="M-23.8003 186.101C-23.8003 186.101 -26.5003 180.601 -22.1003 176.701C-17.7003 172.901 -17.0003 173.201 -15.3003 170.101C-13.7003 167.001 -12.2003 163.501 -9.10034 162.701C-6.00034 161.901 -3.20032 163.101 -0.800323 162.901C2.19968 162.701 2.99967 160.801 7.09967 160.101C10.9997 159.401 13.7997 162.201 15.4997 165.201C17.1997 168.201 16.1997 168.301 20.9997 169.301C25.7997 170.301 27.0997 173.601 27.4997 176.601C27.8997 179.501 33.1997 178.201 30.5997 186.001H-23.8003V186.101Z" fill="#FFC01F"/>
<path d="M10.2992 162.301L4.19922 186.101" stroke="white" stroke-width="0.5" stroke-miterlimit="10"/>
<path d="M21.8994 172.5L6.89941 186.1" stroke="white" stroke-width="0.5" stroke-miterlimit="10"/>
<path d="M-9.10059 165.102L2.19943 186.102" stroke="white" stroke-width="0.5" stroke-miterlimit="10"/>
<path d="M443.82 190.109C443.82 190.109 441.12 184.609 445.52 180.709C449.92 176.909 450.62 177.209 452.32 174.109C453.92 171.009 455.42 167.509 458.52 166.709C461.62 165.909 464.42 167.109 466.82 166.909C469.82 166.709 470.62 164.809 474.72 164.109C478.62 163.409 481.42 166.209 483.12 169.209C484.82 172.209 483.82 172.309 488.62 173.309C493.42 174.309 494.72 177.609 495.12 180.609C495.52 183.509 500.82 182.209 498.22 190.009H443.82V190.109Z" fill="#FFC01F"/>
<path d="M477.919 166.309L471.819 190.109" stroke="white" stroke-width="0.5" stroke-miterlimit="10"/>
<path d="M489.52 176.508L474.52 190.108" stroke="white" stroke-width="0.5" stroke-miterlimit="10"/>
<path d="M458.52 169.109L469.82 190.109" stroke="white" stroke-width="0.5" stroke-miterlimit="10"/>
<path d="M434 85C429.2 86.2 428.2 87.1 427 92C425.8 87.2 424.9 86.2 420 85C424.8 83.8 425.8 82.9 427 78C428.2 82.8 429.1 83.8 434 85Z" fill="#FFC01F"/>
<path d="M578.3 243.5H515.9C509.3 243.5 504 238.2 504 231.6V83.9C504 77.3 509.3 72 515.9 72H578.3C584.9 72 590.2 77.3 590.2 83.9V231.6C590.2 238.2 584.9 243.5 578.3 243.5Z" fill="#262980"/>
<path d="M585 243.5H522.6C516 243.5 510.7 238.2 510.7 231.6V83.9C510.7 77.3 516 72 522.6 72H585C591.6 72 596.9 77.3 596.9 83.9V231.6C596.9 238.2 591.5 243.5 585 243.5Z" fill="#1359DE"/>
<path d="M560.6 78.2004H546.9C546.4 78.2004 546 77.8004 546 77.3004C546 76.8004 546.4 76.4004 546.9 76.4004H560.6C561.1 76.4004 561.5 76.8004 561.5 77.3004C561.6 77.8004 561.1 78.2004 560.6 78.2004Z" stroke="black" stroke-width="0.6509" stroke-miterlimit="10"/>
<path d="M544.7 77.3C544.7 78 544.1 78.6 543.4 78.6C542.7 78.6 542.1 78 542.1 77.3C542.1 76.6 542.7 76 543.4 76C544.1 76 544.7 76.6 544.7 77.3Z" stroke="black" stroke-width="0.6509" stroke-miterlimit="10"/>
<path d="M507.4 141.2C506.6 141.2 506 140.6 506 139.8V120.5C506 119.7 506.6 119.1 507.4 119.1C508.2 119.1 508.8 119.7 508.8 120.5V139.7C508.8 140.5 508.2 141.2 507.4 141.2Z" stroke="#1359DE" stroke-width="0.75" stroke-miterlimit="10"/>
<mask id="mask0_1049_148429" style="mask-type:alpha" maskUnits="userSpaceOnUse" x="513" y="74" width="81" height="167">
<path d="M584.1 74.6992H573.2C571.6 74.6992 570.2 75.7992 569.9 77.2992L569.8 77.4992C569.4 79.1992 567.9 80.3992 566.1 80.3992H541.3C539.6 80.3992 538 79.1992 537.6 77.4992L537.5 77.2992C537.1 75.7992 535.8 74.6992 534.2 74.6992H523.3C518.1 74.6992 513.8 78.8992 513.8 84.1992V231.399C513.8 236.599 518 240.899 523.3 240.899H584C589.2 240.899 593.5 236.699 593.5 231.399V84.0992C593.6 78.8992 589.4 74.6992 584.1 74.6992Z" fill="url(#paint3_linear_1049_148429)"/>
</mask>
<g mask="url(#mask0_1049_148429)">
<path d="M584.1 74.6992H573.2C571.6 74.6992 570.2 75.7992 569.9 77.2992L569.8 77.4992C569.4 79.1992 567.9 80.3992 566.1 80.3992H541.3C539.6 80.3992 538 79.1992 537.6 77.4992L537.5 77.2992C537.1 75.7992 535.8 74.6992 534.2 74.6992H523.3C518.1 74.6992 513.8 78.8992 513.8 84.1992V231.399C513.8 236.599 518 240.899 523.3 240.899H584C589.2 240.899 593.5 236.699 593.5 231.399V84.0992C593.6 78.8992 589.4 74.6992 584.1 74.6992Z" fill="url(#paint4_linear_1049_148429)"/>
<path opacity="0.1" d="M580.3 77.2988H567H553.7H540.4H527.1H513.8V104.999C513.8 108.699 516.8 111.599 520.4 111.599C524.1 111.599 527 108.599 527 104.999C527 108.699 530 111.599 533.6 111.599C537.3 111.599 540.2 108.599 540.2 104.999C540.2 108.699 543.2 111.599 546.8 111.599C550.5 111.599 553.4 108.599 553.4 104.999C553.4 108.699 556.4 111.599 560 111.599C563.7 111.599 566.6 108.599 566.6 104.999C566.6 108.699 569.6 111.599 573.2 111.599C576.9 111.599 579.8 108.599 579.8 104.999C579.8 108.699 582.8 111.599 586.4 111.599C590.1 111.599 593 108.599 593 104.999V77.2988H580.3Z" fill="black"/>
<path d="M520.6 108.4C516.9 108.4 514 105.4 514 101.8V74H527.3V101.7C527.3 105.4 524.3 108.4 520.6 108.4Z" fill="#FD504C"/>
<path d="M533.9 108.4C530.2 108.4 527.3 105.4 527.3 101.8V74H540.6V101.7C540.5 105.4 537.6 108.4 533.9 108.4Z" fill="#FEF1F2"/>
<path d="M547.2 108.4C543.5 108.4 540.6 105.4 540.6 101.8V74H553.9V101.7C553.8 105.4 550.8 108.4 547.2 108.4Z" fill="#FD504C"/>
<path d="M560.4 108.4C556.7 108.4 553.8 105.4 553.8 101.8V74H567.1V101.7C567.1 105.4 564.1 108.4 560.4 108.4Z" fill="#FEF1F2"/>
<path d="M573.7 108.4C570 108.4 567.1 105.4 567.1 101.8V74H580.4V101.7C580.3 105.4 577.4 108.4 573.7 108.4Z" fill="#FD504C"/>
<path d="M544.6 147H527.6C525.1 147 523.1 145 523.1 142.5V125.5C523.1 123 525.1 121 527.6 121H544.6C547.1 121 549.1 123 549.1 125.5V142.5C549.1 145 547.1 147 544.6 147Z" fill="#1359DE"/>
<path d="M539.1 130.2H533.1L533.5 128.7C533.6 128.3 534 128 534.4 128H537.8C538.2 128 538.6 128.3 538.7 128.7L539.1 130.2Z" fill="#0B317A"/>
<path d="M541.7 140.1H530.6C529.4 140.1 528.5 139.1 528.5 138V132C528.5 130.8 529.5 129.9 530.6 129.9H541.7C542.9 129.9 543.8 130.9 543.8 132V138C543.8 139.2 542.8 140.1 541.7 140.1Z" fill="white"/>
<path d="M540.1 135.099C540.1 137.299 538.3 138.999 536.2 138.999C534 138.999 532.3 137.199 532.3 135.099C532.3 132.899 534.1 131.199 536.2 131.199C538.3 131.099 540.1 132.899 540.1 135.099Z" stroke="#1359DE" stroke-width="0.25" stroke-miterlimit="10"/>
<path d="M538.1 135.101C538.1 136.201 537.2 137.001 536.2 137.001C535.1 137.001 534.3 136.101 534.3 135.101C534.3 134.001 535.2 133.201 536.2 133.201C537.2 133.101 538.1 134.001 538.1 135.101Z" fill="#0B317A"/>
<path d="M574.7 126H553.3V127.8H574.7V126Z" fill="#C9DBFF"/>
<path d="M574.7 130.301H553.3V132.101H574.7V130.301Z" fill="#C9DBFF"/>
<path d="M574.7 134.6H553.3V136.4H574.7V134.6Z" fill="#C9DBFF"/>
<path d="M573.999 147H556.399C554.699 147 553.199 145.6 553.199 143.8C553.199 142.1 554.599 140.6 556.399 140.6H573.999C575.699 140.6 577.199 142 577.199 143.8C577.199 145.6 575.799 147 573.999 147Z" fill="#1359DE"/>
<path d="M561.8 145.3V143.5L560.9 145H560.7L559.8 143.5V145.3H559.3V142.6H559.7L560.8 144.4L561.9 142.6H562.3V145.3H561.8Z" fill="white"/>
<path d="M562.8 143.9C562.8 143.1 563.4 142.5 564.3 142.5C565.1 142.5 565.8 143.1 565.8 143.9C565.8 144.7 565.2 145.3 564.3 145.3C563.4 145.3 562.8 144.7 562.8 143.9ZM565.2 143.9C565.2 143.3 564.8 142.9 564.2 142.9C563.7 142.9 563.2 143.3 563.2 143.9C563.2 144.5 563.6 144.9 564.2 144.9C564.8 144.8 565.2 144.4 565.2 143.9Z" fill="white"/>
<path d="M568.1 145.3L567.5 144.5H567.4H566.8V145.3H566.3V142.6H567.4C568.1 142.6 568.6 143 568.6 143.6C568.6 144 568.4 144.3 568 144.5L568.6 145.4H568.1V145.3ZM567.4 143H566.8V144.1H567.4C567.8 144.1 568.1 143.9 568.1 143.6C568 143.2 567.8 143 567.4 143Z" fill="white"/>
<path d="M571.1 144.8V145.2H569.1V142.5H571.1V142.9H569.6V143.6H570.9V144H569.6V144.7H571.1V144.8Z" fill="white"/>
<path d="M544.6 181.6H527.6C525.1 181.6 523.1 179.6 523.1 177.1V160.1C523.1 157.6 525.1 155.6 527.6 155.6H544.6C547.1 155.6 549.1 157.6 549.1 160.1V177.1C549.1 179.6 547.1 181.6 544.6 181.6Z" fill="#1359DE"/>
<path d="M574.7 160.6H553.3V162.4H574.7V160.6Z" fill="#C9DBFF"/>
<path d="M574.7 164.9H553.3V166.7H574.7V164.9Z" fill="#C9DBFF"/>
<path d="M574.7 169.199H553.3V170.999H574.7V169.199Z" fill="#C9DBFF"/>
<path d="M573.999 181.599H556.399C554.699 181.599 553.199 180.199 553.199 178.399C553.199 176.699 554.599 175.199 556.399 175.199H573.999C575.699 175.199 577.199 176.599 577.199 178.399C577.199 180.199 575.799 181.599 573.999 181.599Z" fill="#1359DE"/>
<path d="M561.8 179.8V178L560.9 179.5H560.7L559.8 178V179.8H559.3V177.1H559.7L560.8 178.9L561.9 177.1H562.3V179.8H561.8Z" fill="white"/>
<path d="M562.8 178.5C562.8 177.7 563.4 177.1 564.3 177.1C565.1 177.1 565.8 177.7 565.8 178.5C565.8 179.3 565.2 179.9 564.3 179.9C563.4 179.9 562.8 179.3 562.8 178.5ZM565.2 178.5C565.2 177.9 564.8 177.5 564.2 177.5C563.7 177.5 563.2 177.9 563.2 178.5C563.2 179.1 563.6 179.5 564.2 179.5C564.8 179.4 565.2 179 565.2 178.5Z" fill="white"/>
<path d="M568.1 179.8L567.5 179H567.4H566.8V179.8H566.3V177.1H567.4C568.1 177.1 568.6 177.5 568.6 178.1C568.6 178.5 568.4 178.8 568 179L568.6 179.9H568.1V179.8ZM567.4 177.5H566.8V178.6H567.4C567.8 178.6 568.1 178.4 568.1 178.1C568 177.7 567.8 177.5 567.4 177.5Z" fill="white"/>
<path d="M571.1 179.4V179.8H569.1V177.1H571.1V177.5H569.6V178.2H570.9V178.6H569.6V179.3H571.1V179.4Z" fill="white"/>
<path d="M530.8 169.299V175.199C530.8 176.299 533.2 177.199 536.1 177.199C539 177.199 541.4 176.299 541.4 175.199V169.299H530.8Z" fill="#0B317A"/>
<path d="M529.899 162.4V169.3C529.899 170.6 532.699 171.6 536.099 171.6C539.499 171.6 542.299 170.6 542.299 169.3V162.4H529.899Z" fill="white"/>
<path d="M542.299 162.4C542.299 163.7 539.499 164.7 536.099 164.7C532.699 164.7 529.899 163.7 529.899 162.4C529.899 161.1 532.699 160.1 536.099 160.1C539.499 160.1 542.299 161.1 542.299 162.4Z" fill="#0B317A"/>
<path d="M541.4 162.4C541.4 163.4 539 164.2 536.1 164.2C533.2 164.2 530.8 163.4 530.8 162.4C530.8 161.4 533.2 160.6 536.1 160.6C539 160.6 541.4 161.4 541.4 162.4Z" stroke="white" stroke-width="0.2033" stroke-miterlimit="10"/>
</g>
<path d="M547.929 27.3341L553.329 22.3844C553.585 22.1499 553.729 21.8317 553.73 21.4998C553.73 21.1679 553.586 20.8495 553.33 20.6145C553.075 20.3796 552.728 20.2475 552.365 20.2472C552.003 20.2469 551.656 20.3785 551.4 20.613L546 25.5627L540.6 20.613C540.344 20.3781 539.996 20.2461 539.634 20.2461C539.272 20.2461 538.924 20.3781 538.668 20.613C538.412 20.8479 538.268 21.1665 538.268 21.4987C538.268 21.8309 538.412 22.1495 538.668 22.3844L544.067 27.3341L538.668 32.2838C538.412 32.5187 538.268 32.8374 538.268 33.1696C538.268 33.5018 538.412 33.8204 538.668 34.0553C538.924 34.2902 539.272 34.4222 539.634 34.4222C539.996 34.4222 540.344 34.2902 540.6 34.0553L546 29.1056L551.4 34.0553C551.656 34.2902 552.004 34.4222 552.366 34.4222C552.728 34.4222 553.076 34.2902 553.332 34.0553C553.588 33.8204 553.732 33.5018 553.732 33.1696C553.732 32.8374 553.588 32.5187 553.332 32.2838L547.929 27.3341Z" fill="white"/>
<path d="M162.97 104V86.5455H166.661V100.957H174.143V104H162.97ZM182.434 104.256C181.11 104.256 179.965 103.974 178.999 103.412C178.039 102.844 177.298 102.054 176.775 101.043C176.252 100.026 175.991 98.8466 175.991 97.5057C175.991 96.1534 176.252 94.9716 176.775 93.9602C177.298 92.9432 178.039 92.1534 178.999 91.5909C179.965 91.0227 181.11 90.7386 182.434 90.7386C183.758 90.7386 184.9 91.0227 185.86 91.5909C186.826 92.1534 187.57 92.9432 188.093 93.9602C188.616 94.9716 188.877 96.1534 188.877 97.5057C188.877 98.8466 188.616 100.026 188.093 101.043C187.57 102.054 186.826 102.844 185.86 103.412C184.9 103.974 183.758 104.256 182.434 104.256ZM182.451 101.443C183.053 101.443 183.556 101.273 183.96 100.932C184.363 100.585 184.667 100.114 184.871 99.517C185.082 98.9205 185.187 98.2415 185.187 97.4801C185.187 96.7188 185.082 96.0398 184.871 95.4432C184.667 94.8466 184.363 94.375 183.96 94.0284C183.556 93.6818 183.053 93.5085 182.451 93.5085C181.843 93.5085 181.332 93.6818 180.917 94.0284C180.508 94.375 180.198 94.8466 179.988 95.4432C179.783 96.0398 179.681 96.7188 179.681 97.4801C179.681 98.2415 179.783 98.9205 179.988 99.517C180.198 100.114 180.508 100.585 180.917 100.932C181.332 101.273 181.843 101.443 182.451 101.443ZM197.136 109.182C195.96 109.182 194.951 109.02 194.11 108.696C193.275 108.378 192.61 107.943 192.116 107.392C191.621 106.841 191.3 106.222 191.153 105.534L194.511 105.082C194.613 105.344 194.775 105.588 194.996 105.815C195.218 106.043 195.511 106.224 195.874 106.361C196.244 106.503 196.692 106.574 197.221 106.574C198.011 106.574 198.661 106.381 199.173 105.994C199.69 105.614 199.948 104.974 199.948 104.077V101.682H199.795C199.636 102.045 199.397 102.389 199.079 102.713C198.761 103.037 198.352 103.301 197.852 103.506C197.352 103.71 196.755 103.812 196.062 103.812C195.079 103.812 194.184 103.585 193.377 103.131C192.576 102.67 191.937 101.969 191.46 101.026C190.988 100.077 190.752 98.8778 190.752 97.429C190.752 95.946 190.994 94.7074 191.477 93.7131C191.96 92.7187 192.602 91.9744 193.403 91.4801C194.21 90.9858 195.093 90.7386 196.053 90.7386C196.786 90.7386 197.4 90.8636 197.894 91.1136C198.388 91.358 198.786 91.6648 199.087 92.0341C199.394 92.3977 199.63 92.7557 199.795 93.108H199.931V90.9091H203.536V104.128C203.536 105.241 203.263 106.173 202.718 106.923C202.173 107.673 201.417 108.236 200.451 108.611C199.491 108.991 198.386 109.182 197.136 109.182ZM197.212 101.085C197.798 101.085 198.292 100.94 198.695 100.651C199.104 100.355 199.417 99.9347 199.633 99.3892C199.854 98.8381 199.965 98.179 199.965 97.4119C199.965 96.6449 199.857 95.9801 199.641 95.4176C199.425 94.8494 199.113 94.4091 198.704 94.0966C198.295 93.7841 197.798 93.6278 197.212 93.6278C196.616 93.6278 196.113 93.7898 195.704 94.1136C195.295 94.4318 194.985 94.875 194.775 95.4432C194.565 96.0114 194.46 96.6676 194.46 97.4119C194.46 98.1676 194.565 98.821 194.775 99.3722C194.991 99.9176 195.3 100.341 195.704 100.642C196.113 100.937 196.616 101.085 197.212 101.085ZM211.98 104V90.9091H215.611V104H211.98ZM213.804 89.2216C213.264 89.2216 212.801 89.0426 212.415 88.6847C212.034 88.321 211.844 87.8864 211.844 87.3807C211.844 86.8807 212.034 86.4517 212.415 86.0938C212.801 85.7301 213.264 85.5483 213.804 85.5483C214.344 85.5483 214.804 85.7301 215.185 86.0938C215.571 86.4517 215.764 86.8807 215.764 87.3807C215.764 87.8864 215.571 88.321 215.185 88.6847C214.804 89.0426 214.344 89.2216 213.804 89.2216ZM222.15 96.4318V104H218.519V90.9091H221.979V93.2188H222.133C222.423 92.4574 222.908 91.8551 223.59 91.4119C224.272 90.9631 225.099 90.7386 226.07 90.7386C226.979 90.7386 227.772 90.9375 228.448 91.3352C229.124 91.733 229.65 92.3011 230.025 93.0398C230.4 93.7727 230.587 94.6477 230.587 95.6648V104H226.957V96.3125C226.962 95.5114 226.758 94.8864 226.343 94.4375C225.928 93.983 225.357 93.7557 224.63 93.7557C224.141 93.7557 223.71 93.8608 223.335 94.071C222.965 94.2812 222.675 94.5881 222.465 94.9915C222.261 95.3892 222.156 95.8693 222.15 96.4318ZM244.918 104.256C243.594 104.256 242.45 103.974 241.484 103.412C240.523 102.844 239.782 102.054 239.259 101.043C238.737 100.026 238.475 98.8466 238.475 97.5057C238.475 96.1534 238.737 94.9716 239.259 93.9602C239.782 92.9432 240.523 92.1534 241.484 91.5909C242.45 91.0227 243.594 90.7386 244.918 90.7386C246.242 90.7386 247.384 91.0227 248.344 91.5909C249.31 92.1534 250.055 92.9432 250.577 93.9602C251.1 94.9716 251.362 96.1534 251.362 97.5057C251.362 98.8466 251.1 100.026 250.577 101.043C250.055 102.054 249.31 102.844 248.344 103.412C247.384 103.974 246.242 104.256 244.918 104.256ZM244.935 101.443C245.538 101.443 246.04 101.273 246.444 100.932C246.847 100.585 247.151 100.114 247.356 99.517C247.566 98.9205 247.671 98.2415 247.671 97.4801C247.671 96.7188 247.566 96.0398 247.356 95.4432C247.151 94.8466 246.847 94.375 246.444 94.0284C246.04 93.6818 245.538 93.5085 244.935 93.5085C244.327 93.5085 243.816 93.6818 243.401 94.0284C242.992 94.375 242.683 94.8466 242.472 95.4432C242.268 96.0398 242.165 96.7188 242.165 97.4801C242.165 98.2415 242.268 98.9205 242.472 99.517C242.683 100.114 242.992 100.585 243.401 100.932C243.816 101.273 244.327 101.443 244.935 101.443ZM253.722 104V90.9091H257.242V93.1932H257.379C257.617 92.3807 258.018 91.767 258.58 91.3523C259.143 90.9318 259.79 90.7216 260.523 90.7216C260.705 90.7216 260.901 90.733 261.112 90.7557C261.322 90.7784 261.506 90.8097 261.665 90.8494V94.071C261.495 94.0199 261.259 93.9744 260.958 93.9347C260.657 93.8949 260.381 93.875 260.131 93.875C259.597 93.875 259.12 93.9915 258.7 94.2244C258.285 94.4517 257.955 94.7699 257.711 95.179C257.472 95.5881 257.353 96.0597 257.353 96.5938V104H253.722ZM278.634 91.5653C278.566 90.8778 278.273 90.3437 277.756 89.9631C277.239 89.5824 276.538 89.392 275.651 89.392C275.049 89.392 274.54 89.4773 274.126 89.6477C273.711 89.8125 273.393 90.0426 273.171 90.3381C272.955 90.6335 272.847 90.9688 272.847 91.3438C272.836 91.6562 272.901 91.929 273.043 92.1619C273.191 92.3949 273.393 92.5966 273.648 92.767C273.904 92.9318 274.2 93.0767 274.535 93.2017C274.87 93.321 275.228 93.4233 275.609 93.5085L277.177 93.8835C277.938 94.054 278.637 94.2812 279.273 94.5653C279.91 94.8494 280.461 95.1989 280.927 95.6136C281.393 96.0284 281.754 96.517 282.009 97.0795C282.271 97.642 282.404 98.2869 282.41 99.0142C282.404 100.082 282.131 101.009 281.592 101.793C281.058 102.571 280.285 103.176 279.273 103.608C278.268 104.034 277.055 104.247 275.634 104.247C274.225 104.247 272.998 104.031 271.952 103.599C270.913 103.168 270.1 102.528 269.515 101.682C268.935 100.83 268.631 99.7756 268.603 98.5199H272.174C272.214 99.1051 272.381 99.5937 272.677 99.9858C272.978 100.372 273.379 100.665 273.879 100.864C274.384 101.057 274.955 101.153 275.592 101.153C276.217 101.153 276.759 101.062 277.219 100.881C277.685 100.699 278.046 100.446 278.302 100.122C278.558 99.7983 278.685 99.4261 278.685 99.0057C278.685 98.6136 278.569 98.2841 278.336 98.017C278.109 97.75 277.773 97.5227 277.33 97.3352C276.893 97.1477 276.356 96.9773 275.719 96.8239L273.819 96.3466C272.347 95.9886 271.185 95.429 270.333 94.6676C269.481 93.9062 269.058 92.8807 269.063 91.5909C269.058 90.5341 269.339 89.6108 269.907 88.821C270.481 88.0312 271.268 87.4148 272.268 86.9716C273.268 86.5284 274.404 86.3068 275.677 86.3068C276.972 86.3068 278.103 86.5284 279.069 86.9716C280.04 87.4148 280.796 88.0312 281.336 88.821C281.876 89.6108 282.154 90.5256 282.171 91.5653H278.634ZM284.824 104V90.9091H288.455V104H284.824ZM286.648 89.2216C286.108 89.2216 285.645 89.0426 285.259 88.6847C284.878 88.321 284.688 87.8864 284.688 87.3807C284.688 86.8807 284.878 86.4517 285.259 86.0938C285.645 85.7301 286.108 85.5483 286.648 85.5483C287.188 85.5483 287.648 85.7301 288.028 86.0938C288.415 86.4517 288.608 86.8807 288.608 87.3807C288.608 87.8864 288.415 88.321 288.028 88.6847C287.648 89.0426 287.188 89.2216 286.648 89.2216ZM297.261 109.182C296.085 109.182 295.076 109.02 294.235 108.696C293.4 108.378 292.735 107.943 292.241 107.392C291.746 106.841 291.425 106.222 291.278 105.534L294.636 105.082C294.738 105.344 294.9 105.588 295.121 105.815C295.343 106.043 295.636 106.224 295.999 106.361C296.369 106.503 296.817 106.574 297.346 106.574C298.136 106.574 298.786 106.381 299.298 105.994C299.815 105.614 300.073 104.974 300.073 104.077V101.682H299.92C299.761 102.045 299.522 102.389 299.204 102.713C298.886 103.037 298.477 103.301 297.977 103.506C297.477 103.71 296.88 103.812 296.187 103.812C295.204 103.812 294.309 103.585 293.502 103.131C292.701 102.67 292.062 101.969 291.585 101.026C291.113 100.077 290.877 98.8778 290.877 97.429C290.877 95.946 291.119 94.7074 291.602 93.7131C292.085 92.7187 292.727 91.9744 293.528 91.4801C294.335 90.9858 295.218 90.7386 296.178 90.7386C296.911 90.7386 297.525 90.8636 298.019 91.1136C298.513 91.358 298.911 91.6648 299.212 92.0341C299.519 92.3977 299.755 92.7557 299.92 93.108H300.056V90.9091H303.661V104.128C303.661 105.241 303.388 106.173 302.843 106.923C302.298 107.673 301.542 108.236 300.576 108.611C299.616 108.991 298.511 109.182 297.261 109.182ZM297.337 101.085C297.923 101.085 298.417 100.94 298.82 100.651C299.229 100.355 299.542 99.9347 299.758 99.3892C299.979 98.8381 300.09 98.179 300.09 97.4119C300.09 96.6449 299.982 95.9801 299.766 95.4176C299.55 94.8494 299.238 94.4091 298.829 94.0966C298.42 93.7841 297.923 93.6278 297.337 93.6278C296.741 93.6278 296.238 93.7898 295.829 94.1136C295.42 94.4318 295.11 94.875 294.9 95.4432C294.69 96.0114 294.585 96.6676 294.585 97.4119C294.585 98.1676 294.69 98.821 294.9 99.3722C295.116 99.9176 295.425 100.341 295.829 100.642C296.238 100.937 296.741 101.085 297.337 101.085ZM310.181 96.4318V104H306.55V90.9091H310.011V93.2188H310.164C310.454 92.4574 310.94 91.8551 311.621 91.4119C312.303 90.9631 313.13 90.7386 314.102 90.7386C315.011 90.7386 315.803 90.9375 316.479 91.3352C317.156 91.733 317.681 92.3011 318.056 93.0398C318.431 93.7727 318.619 94.6477 318.619 95.6648V104H314.988V96.3125C314.994 95.5114 314.789 94.8864 314.374 94.4375C313.96 93.983 313.388 93.7557 312.661 93.7557C312.173 93.7557 311.741 93.8608 311.366 94.071C310.996 94.2812 310.707 94.5881 310.496 94.9915C310.292 95.3892 310.187 95.8693 310.181 96.4318ZM335.43 98.4261V90.9091H339.06V104H335.575V101.622H335.438C335.143 102.389 334.651 103.006 333.964 103.472C333.282 103.937 332.45 104.17 331.467 104.17C330.592 104.17 329.822 103.972 329.157 103.574C328.492 103.176 327.972 102.611 327.597 101.878C327.228 101.145 327.04 100.267 327.035 99.2443V90.9091H330.665V98.5966C330.671 99.3693 330.879 99.9801 331.288 100.429C331.697 100.878 332.245 101.102 332.933 101.102C333.37 101.102 333.779 101.003 334.16 100.804C334.54 100.599 334.847 100.298 335.08 99.9006C335.319 99.5028 335.435 99.0114 335.43 98.4261ZM341.964 108.909V90.9091H345.544V93.108H345.706C345.865 92.7557 346.095 92.3977 346.396 92.0341C346.703 91.6648 347.101 91.358 347.589 91.1136C348.084 90.8636 348.697 90.7386 349.43 90.7386C350.385 90.7386 351.266 90.9886 352.072 91.4886C352.879 91.983 353.524 92.7301 354.007 93.7301C354.49 94.7244 354.732 95.9716 354.732 97.4716C354.732 98.9318 354.496 100.165 354.024 101.17C353.558 102.17 352.922 102.929 352.115 103.446C351.314 103.957 350.416 104.213 349.422 104.213C348.717 104.213 348.118 104.097 347.624 103.864C347.135 103.631 346.734 103.338 346.422 102.986C346.109 102.628 345.871 102.267 345.706 101.903H345.595V108.909H341.964ZM345.518 97.4545C345.518 98.233 345.626 98.9119 345.842 99.4915C346.058 100.071 346.371 100.523 346.78 100.847C347.189 101.165 347.686 101.324 348.271 101.324C348.862 101.324 349.362 101.162 349.771 100.838C350.18 100.509 350.49 100.054 350.7 99.4744C350.916 98.8892 351.024 98.2159 351.024 97.4545C351.024 96.6989 350.919 96.0341 350.709 95.4602C350.499 94.8864 350.189 94.4375 349.78 94.1136C349.371 93.7898 348.868 93.6278 348.271 93.6278C347.68 93.6278 347.18 93.7841 346.771 94.0966C346.368 94.4091 346.058 94.8523 345.842 95.4261C345.626 96 345.518 96.6761 345.518 97.4545ZM366.337 96.4318V104H362.707V90.9091H366.167V93.2188H366.32C366.61 92.4574 367.096 91.8551 367.778 91.4119C368.46 90.9631 369.286 90.7386 370.258 90.7386C371.167 90.7386 371.96 90.9375 372.636 91.3352C373.312 91.733 373.837 92.3011 374.212 93.0398C374.587 93.7727 374.775 94.6477 374.775 95.6648V104H371.144V96.3125C371.15 95.5114 370.945 94.8864 370.531 94.4375C370.116 93.983 369.545 93.7557 368.817 93.7557C368.329 93.7557 367.897 93.8608 367.522 94.071C367.153 94.2812 366.863 94.5881 366.653 94.9915C366.448 95.3892 366.343 95.8693 366.337 96.4318ZM383.551 104.256C382.227 104.256 381.082 103.974 380.116 103.412C379.156 102.844 378.415 102.054 377.892 101.043C377.369 100.026 377.108 98.8466 377.108 97.5057C377.108 96.1534 377.369 94.9716 377.892 93.9602C378.415 92.9432 379.156 92.1534 380.116 91.5909C381.082 91.0227 382.227 90.7386 383.551 90.7386C384.875 90.7386 386.017 91.0227 386.977 91.5909C387.943 92.1534 388.688 92.9432 389.21 93.9602C389.733 94.9716 389.994 96.1534 389.994 97.5057C389.994 98.8466 389.733 100.026 389.21 101.043C388.688 102.054 387.943 102.844 386.977 103.412C386.017 103.974 384.875 104.256 383.551 104.256ZM383.568 101.443C384.17 101.443 384.673 101.273 385.077 100.932C385.48 100.585 385.784 100.114 385.989 99.517C386.199 98.9205 386.304 98.2415 386.304 97.4801C386.304 96.7188 386.199 96.0398 385.989 95.4432C385.784 94.8466 385.48 94.375 385.077 94.0284C384.673 93.6818 384.17 93.5085 383.568 93.5085C382.96 93.5085 382.449 93.6818 382.034 94.0284C381.625 94.375 381.315 94.8466 381.105 95.4432C380.901 96.0398 380.798 96.7188 380.798 97.4801C380.798 98.2415 380.901 98.9205 381.105 99.517C381.315 100.114 381.625 100.585 382.034 100.932C382.449 101.273 382.96 101.443 383.568 101.443ZM394.609 104L391.047 90.9091H394.72L396.749 99.7045H396.868L398.982 90.9091H402.587L404.734 99.6534H404.845L406.839 90.9091H410.504L406.95 104H403.107L400.857 95.767H400.695L398.445 104H394.609ZM133.607 124.909V127.636H125.724V124.909H133.607ZM127.513 121.773H131.144V133.977C131.144 134.312 131.195 134.574 131.298 134.761C131.4 134.943 131.542 135.071 131.724 135.145C131.911 135.219 132.127 135.256 132.371 135.256C132.542 135.256 132.712 135.241 132.883 135.213C133.053 135.179 133.184 135.153 133.275 135.136L133.846 137.838C133.664 137.895 133.408 137.96 133.079 138.034C132.749 138.114 132.349 138.162 131.877 138.179C131.002 138.213 130.235 138.097 129.576 137.83C128.923 137.562 128.414 137.148 128.05 136.585C127.687 136.023 127.508 135.312 127.513 134.455V121.773ZM141.746 138.256C140.423 138.256 139.278 137.974 138.312 137.412C137.352 136.844 136.61 136.054 136.087 135.043C135.565 134.026 135.303 132.847 135.303 131.506C135.303 130.153 135.565 128.972 136.087 127.96C136.61 126.943 137.352 126.153 138.312 125.591C139.278 125.023 140.423 124.739 141.746 124.739C143.07 124.739 144.212 125.023 145.173 125.591C146.138 126.153 146.883 126.943 147.406 127.96C147.928 128.972 148.19 130.153 148.19 131.506C148.19 132.847 147.928 134.026 147.406 135.043C146.883 136.054 146.138 136.844 145.173 137.412C144.212 137.974 143.07 138.256 141.746 138.256ZM141.763 135.443C142.366 135.443 142.869 135.273 143.272 134.932C143.675 134.585 143.979 134.114 144.184 133.517C144.394 132.92 144.499 132.241 144.499 131.48C144.499 130.719 144.394 130.04 144.184 129.443C143.979 128.847 143.675 128.375 143.272 128.028C142.869 127.682 142.366 127.509 141.763 127.509C141.156 127.509 140.644 127.682 140.229 128.028C139.82 128.375 139.511 128.847 139.3 129.443C139.096 130.04 138.994 130.719 138.994 131.48C138.994 132.241 139.096 132.92 139.3 133.517C139.511 134.114 139.82 134.585 140.229 134.932C140.644 135.273 141.156 135.443 141.763 135.443ZM162.071 138.256C160.724 138.256 159.565 137.983 158.594 137.438C157.628 136.886 156.884 136.108 156.361 135.102C155.838 134.091 155.577 132.895 155.577 131.514C155.577 130.168 155.838 128.986 156.361 127.969C156.884 126.952 157.619 126.159 158.568 125.591C159.523 125.023 160.642 124.739 161.926 124.739C162.79 124.739 163.594 124.878 164.338 125.156C165.088 125.429 165.741 125.841 166.298 126.392C166.861 126.943 167.298 127.636 167.611 128.472C167.923 129.301 168.08 130.273 168.08 131.386V132.384H157.026V130.134H164.662C164.662 129.611 164.548 129.148 164.321 128.744C164.094 128.341 163.778 128.026 163.375 127.798C162.977 127.565 162.514 127.449 161.986 127.449C161.435 127.449 160.946 127.577 160.52 127.832C160.099 128.082 159.77 128.42 159.531 128.847C159.293 129.267 159.17 129.736 159.165 130.253V132.392C159.165 133.04 159.284 133.599 159.523 134.071C159.767 134.543 160.111 134.906 160.554 135.162C160.997 135.418 161.523 135.545 162.131 135.545C162.534 135.545 162.903 135.489 163.239 135.375C163.574 135.261 163.861 135.091 164.099 134.864C164.338 134.636 164.52 134.358 164.645 134.028L168.003 134.25C167.832 135.057 167.483 135.761 166.955 136.364C166.432 136.96 165.756 137.426 164.926 137.761C164.102 138.091 163.151 138.256 162.071 138.256ZM173.249 124.909L175.652 129.486L178.115 124.909H181.839L178.047 131.455L181.942 138H178.234L175.652 133.474L173.112 138H169.362L173.249 131.455L169.499 124.909H173.249ZM183.996 142.909V124.909H187.575V127.108H187.737C187.896 126.756 188.126 126.398 188.428 126.034C188.734 125.665 189.132 125.358 189.621 125.114C190.115 124.864 190.729 124.739 191.462 124.739C192.416 124.739 193.297 124.989 194.104 125.489C194.911 125.983 195.555 126.73 196.038 127.73C196.521 128.724 196.763 129.972 196.763 131.472C196.763 132.932 196.527 134.165 196.055 135.17C195.589 136.17 194.953 136.929 194.146 137.446C193.345 137.957 192.447 138.213 191.453 138.213C190.749 138.213 190.149 138.097 189.655 137.864C189.166 137.631 188.766 137.338 188.453 136.986C188.141 136.628 187.902 136.267 187.737 135.903H187.626V142.909H183.996ZM187.55 131.455C187.55 132.233 187.658 132.912 187.874 133.491C188.089 134.071 188.402 134.523 188.811 134.847C189.22 135.165 189.717 135.324 190.303 135.324C190.893 135.324 191.393 135.162 191.803 134.838C192.212 134.509 192.521 134.054 192.732 133.474C192.947 132.889 193.055 132.216 193.055 131.455C193.055 130.699 192.95 130.034 192.74 129.46C192.53 128.886 192.22 128.437 191.811 128.114C191.402 127.79 190.899 127.628 190.303 127.628C189.712 127.628 189.212 127.784 188.803 128.097C188.399 128.409 188.089 128.852 187.874 129.426C187.658 130 187.55 130.676 187.55 131.455ZM202.814 120.545V138H199.183V120.545H202.814ZM211.637 138.256C210.313 138.256 209.168 137.974 208.202 137.412C207.242 136.844 206.501 136.054 205.978 135.043C205.455 134.026 205.194 132.847 205.194 131.506C205.194 130.153 205.455 128.972 205.978 127.96C206.501 126.943 207.242 126.153 208.202 125.591C209.168 125.023 210.313 124.739 211.637 124.739C212.961 124.739 214.103 125.023 215.063 125.591C216.029 126.153 216.773 126.943 217.296 127.96C217.819 128.972 218.08 130.153 218.08 131.506C218.08 132.847 217.819 134.026 217.296 135.043C216.773 136.054 216.029 136.844 215.063 137.412C214.103 137.974 212.961 138.256 211.637 138.256ZM211.654 135.443C212.256 135.443 212.759 135.273 213.163 134.932C213.566 134.585 213.87 134.114 214.075 133.517C214.285 132.92 214.39 132.241 214.39 131.48C214.39 130.719 214.285 130.04 214.075 129.443C213.87 128.847 213.566 128.375 213.163 128.028C212.759 127.682 212.256 127.509 211.654 127.509C211.046 127.509 210.535 127.682 210.12 128.028C209.711 128.375 209.401 128.847 209.191 129.443C208.987 130.04 208.884 130.719 208.884 131.48C208.884 132.241 208.987 132.92 209.191 133.517C209.401 134.114 209.711 134.585 210.12 134.932C210.535 135.273 211.046 135.443 211.654 135.443ZM220.441 138V124.909H223.961V127.193H224.097C224.336 126.381 224.737 125.767 225.299 125.352C225.862 124.932 226.509 124.722 227.242 124.722C227.424 124.722 227.62 124.733 227.83 124.756C228.04 124.778 228.225 124.81 228.384 124.849V128.071C228.214 128.02 227.978 127.974 227.677 127.935C227.376 127.895 227.1 127.875 226.85 127.875C226.316 127.875 225.839 127.991 225.418 128.224C225.004 128.452 224.674 128.77 224.43 129.179C224.191 129.588 224.072 130.06 224.072 130.594V138H220.441ZM235.618 138.256C234.271 138.256 233.112 137.983 232.141 137.438C231.175 136.886 230.43 136.108 229.908 135.102C229.385 134.091 229.124 132.895 229.124 131.514C229.124 130.168 229.385 128.986 229.908 127.969C230.43 126.952 231.166 126.159 232.115 125.591C233.07 125.023 234.189 124.739 235.473 124.739C236.337 124.739 237.141 124.878 237.885 125.156C238.635 125.429 239.288 125.841 239.845 126.392C240.408 126.943 240.845 127.636 241.158 128.472C241.47 129.301 241.626 130.273 241.626 131.386V132.384H230.572V130.134H238.209C238.209 129.611 238.095 129.148 237.868 128.744C237.641 128.341 237.325 128.026 236.922 127.798C236.524 127.565 236.061 127.449 235.533 127.449C234.982 127.449 234.493 127.577 234.067 127.832C233.646 128.082 233.317 128.42 233.078 128.847C232.839 129.267 232.717 129.736 232.712 130.253V132.392C232.712 133.04 232.831 133.599 233.07 134.071C233.314 134.543 233.658 134.906 234.101 135.162C234.544 135.418 235.07 135.545 235.678 135.545C236.081 135.545 236.45 135.489 236.786 135.375C237.121 135.261 237.408 135.091 237.646 134.864C237.885 134.636 238.067 134.358 238.192 134.028L241.55 134.25C241.379 135.057 241.03 135.761 240.501 136.364C239.979 136.96 239.303 137.426 238.473 137.761C237.649 138.091 236.697 138.256 235.618 138.256ZM249.55 138V124.909H253.011V127.219H253.164C253.437 126.452 253.891 125.847 254.528 125.403C255.164 124.96 255.925 124.739 256.812 124.739C257.71 124.739 258.474 124.963 259.104 125.412C259.735 125.855 260.156 126.457 260.366 127.219H260.502C260.769 126.469 261.252 125.869 261.951 125.42C262.656 124.966 263.488 124.739 264.448 124.739C265.67 124.739 266.661 125.128 267.423 125.906C268.19 126.679 268.573 127.776 268.573 129.196V138H264.951V129.912C264.951 129.185 264.758 128.639 264.371 128.276C263.985 127.912 263.502 127.73 262.923 127.73C262.263 127.73 261.749 127.94 261.38 128.361C261.011 128.776 260.826 129.324 260.826 130.006V138H257.306V129.835C257.306 129.193 257.121 128.682 256.752 128.301C256.388 127.92 255.908 127.73 255.312 127.73C254.908 127.73 254.545 127.832 254.221 128.037C253.903 128.236 253.65 128.517 253.462 128.881C253.275 129.239 253.181 129.659 253.181 130.142V138H249.55ZM277.356 138.256C276.032 138.256 274.887 137.974 273.921 137.412C272.961 136.844 272.219 136.054 271.697 135.043C271.174 134.026 270.913 132.847 270.913 131.506C270.913 130.153 271.174 128.972 271.697 127.96C272.219 126.943 272.961 126.153 273.921 125.591C274.887 125.023 276.032 124.739 277.356 124.739C278.68 124.739 279.822 125.023 280.782 125.591C281.748 126.153 282.492 126.943 283.015 127.96C283.538 128.972 283.799 130.153 283.799 131.506C283.799 132.847 283.538 134.026 283.015 135.043C282.492 136.054 281.748 136.844 280.782 137.412C279.822 137.974 278.68 138.256 277.356 138.256ZM277.373 135.443C277.975 135.443 278.478 135.273 278.881 134.932C279.285 134.585 279.589 134.114 279.793 133.517C280.004 132.92 280.109 132.241 280.109 131.48C280.109 130.719 280.004 130.04 279.793 129.443C279.589 128.847 279.285 128.375 278.881 128.028C278.478 127.682 277.975 127.509 277.373 127.509C276.765 127.509 276.254 127.682 275.839 128.028C275.43 128.375 275.12 128.847 274.91 129.443C274.705 130.04 274.603 130.719 274.603 131.48C274.603 132.241 274.705 132.92 274.91 133.517C275.12 134.114 275.43 134.585 275.839 134.932C276.254 135.273 276.765 135.443 277.373 135.443ZM286.16 138V124.909H289.68V127.193H289.816C290.055 126.381 290.455 125.767 291.018 125.352C291.58 124.932 292.228 124.722 292.961 124.722C293.143 124.722 293.339 124.733 293.549 124.756C293.759 124.778 293.944 124.81 294.103 124.849V128.071C293.933 128.02 293.697 127.974 293.396 127.935C293.094 127.895 292.819 127.875 292.569 127.875C292.035 127.875 291.558 127.991 291.137 128.224C290.722 128.452 290.393 128.77 290.148 129.179C289.91 129.588 289.79 130.06 289.79 130.594V138H286.16ZM301.337 138.256C299.99 138.256 298.831 137.983 297.859 137.438C296.893 136.886 296.149 136.108 295.626 135.102C295.104 134.091 294.842 132.895 294.842 131.514C294.842 130.168 295.104 128.986 295.626 127.969C296.149 126.952 296.885 126.159 297.834 125.591C298.788 125.023 299.908 124.739 301.192 124.739C302.055 124.739 302.859 124.878 303.604 125.156C304.354 125.429 305.007 125.841 305.564 126.392C306.126 126.943 306.564 127.636 306.876 128.472C307.189 129.301 307.345 130.273 307.345 131.386V132.384H296.291V130.134H303.928C303.928 129.611 303.814 129.148 303.587 128.744C303.359 128.341 303.044 128.026 302.641 127.798C302.243 127.565 301.78 127.449 301.251 127.449C300.7 127.449 300.212 127.577 299.786 127.832C299.365 128.082 299.036 128.42 298.797 128.847C298.558 129.267 298.436 129.736 298.43 130.253V132.392C298.43 133.04 298.55 133.599 298.788 134.071C299.033 134.543 299.376 134.906 299.82 135.162C300.263 135.418 300.788 135.545 301.396 135.545C301.8 135.545 302.169 135.489 302.504 135.375C302.839 135.261 303.126 135.091 303.365 134.864C303.604 134.636 303.786 134.358 303.911 134.028L307.268 134.25C307.098 135.057 306.749 135.761 306.22 136.364C305.697 136.96 305.021 137.426 304.192 137.761C303.368 138.091 302.416 138.256 301.337 138.256ZM317.852 138L314.289 124.909H317.962L319.991 133.705H320.11L322.224 124.909H325.829L327.977 133.653H328.087L330.082 124.909H333.746L330.192 138H326.349L324.099 129.767H323.937L321.687 138H317.852ZM335.683 138V124.909H339.314V138H335.683ZM337.507 123.222C336.967 123.222 336.504 123.043 336.118 122.685C335.737 122.321 335.547 121.886 335.547 121.381C335.547 120.881 335.737 120.452 336.118 120.094C336.504 119.73 336.967 119.548 337.507 119.548C338.047 119.548 338.507 119.73 338.888 120.094C339.274 120.452 339.467 120.881 339.467 121.381C339.467 121.886 339.274 122.321 338.888 122.685C338.507 123.043 338.047 123.222 337.507 123.222ZM349.185 124.909V127.636H341.302V124.909H349.185ZM343.092 121.773H346.722V133.977C346.722 134.312 346.773 134.574 346.876 134.761C346.978 134.943 347.12 135.071 347.302 135.145C347.489 135.219 347.705 135.256 347.95 135.256C348.12 135.256 348.29 135.241 348.461 135.213C348.631 135.179 348.762 135.153 348.853 135.136L349.424 137.838C349.242 137.895 348.987 137.96 348.657 138.034C348.327 138.114 347.927 138.162 347.455 138.179C346.58 138.213 345.813 138.097 345.154 137.83C344.501 137.562 343.992 137.148 343.629 136.585C343.265 136.023 343.086 135.312 343.092 134.455V121.773ZM355.462 130.432V138H351.832V120.545H355.36V127.219H355.513C355.809 126.446 356.286 125.841 356.945 125.403C357.604 124.96 358.431 124.739 359.425 124.739C360.335 124.739 361.127 124.938 361.803 125.335C362.485 125.727 363.013 126.293 363.388 127.031C363.769 127.764 363.957 128.642 363.951 129.665V138H360.32V130.312C360.326 129.506 360.121 128.878 359.707 128.429C359.298 127.98 358.724 127.756 357.985 127.756C357.491 127.756 357.053 127.861 356.673 128.071C356.298 128.281 356.002 128.588 355.786 128.991C355.576 129.389 355.468 129.869 355.462 130.432ZM371.766 123.588V120.545H386.102V123.588H380.758V138H377.11V123.588H371.766ZM387.035 138V124.909H390.555V127.193H390.691C390.93 126.381 391.33 125.767 391.893 125.352C392.455 124.932 393.103 124.722 393.836 124.722C394.018 124.722 394.214 124.733 394.424 124.756C394.634 124.778 394.819 124.81 394.978 124.849V128.071C394.808 128.02 394.572 127.974 394.271 127.935C393.969 127.895 393.694 127.875 393.444 127.875C392.91 127.875 392.433 127.991 392.012 128.224C391.597 128.452 391.268 128.77 391.023 129.179C390.785 129.588 390.665 130.06 390.665 130.594V138H387.035ZM396.855 138V124.909H400.486V138H396.855ZM398.679 123.222C398.139 123.222 397.676 123.043 397.29 122.685C396.909 122.321 396.719 121.886 396.719 121.381C396.719 120.881 396.909 120.452 397.29 120.094C397.676 119.73 398.139 119.548 398.679 119.548C399.219 119.548 399.679 119.73 400.06 120.094C400.446 120.452 400.639 120.881 400.639 121.381C400.639 121.886 400.446 122.321 400.06 122.685C399.679 123.043 399.219 123.222 398.679 123.222ZM403.462 138V120.545H407.093V127.108H407.204C407.363 126.756 407.593 126.398 407.894 126.034C408.201 125.665 408.599 125.358 409.087 125.114C409.582 124.864 410.195 124.739 410.928 124.739C411.883 124.739 412.763 124.989 413.57 125.489C414.377 125.983 415.022 126.73 415.505 127.73C415.988 128.724 416.229 129.972 416.229 131.472C416.229 132.932 415.994 134.165 415.522 135.17C415.056 136.17 414.42 136.929 413.613 137.446C412.812 137.957 411.914 138.213 410.92 138.213C410.215 138.213 409.616 138.097 409.121 137.864C408.633 137.631 408.232 137.338 407.92 136.986C407.607 136.628 407.369 136.267 407.204 135.903H407.042V138H403.462ZM407.016 131.455C407.016 132.233 407.124 132.912 407.34 133.491C407.556 134.071 407.869 134.523 408.278 134.847C408.687 135.165 409.184 135.324 409.769 135.324C410.36 135.324 410.86 135.162 411.269 134.838C411.678 134.509 411.988 134.054 412.198 133.474C412.414 132.889 412.522 132.216 412.522 131.455C412.522 130.699 412.417 130.034 412.207 129.46C411.996 128.886 411.687 128.437 411.278 128.114C410.869 127.79 410.366 127.628 409.769 127.628C409.178 127.628 408.678 127.784 408.269 128.097C407.866 128.409 407.556 128.852 407.34 129.426C407.124 130 407.016 130.676 407.016 131.455ZM424.618 138.256C423.271 138.256 422.112 137.983 421.141 137.438C420.175 136.886 419.43 136.108 418.908 135.102C418.385 134.091 418.124 132.895 418.124 131.514C418.124 130.168 418.385 128.986 418.908 127.969C419.43 126.952 420.166 126.159 421.115 125.591C422.07 125.023 423.189 124.739 424.473 124.739C425.337 124.739 426.141 124.878 426.885 125.156C427.635 125.429 428.288 125.841 428.845 126.392C429.408 126.943 429.845 127.636 430.158 128.472C430.47 129.301 430.626 130.273 430.626 131.386V132.384H419.572V130.134H427.209C427.209 129.611 427.095 129.148 426.868 128.744C426.641 128.341 426.325 128.026 425.922 127.798C425.524 127.565 425.061 127.449 424.533 127.449C423.982 127.449 423.493 127.577 423.067 127.832C422.646 128.082 422.317 128.42 422.078 128.847C421.839 129.267 421.717 129.736 421.712 130.253V132.392C421.712 133.04 421.831 133.599 422.07 134.071C422.314 134.543 422.658 134.906 423.101 135.162C423.544 135.418 424.07 135.545 424.678 135.545C425.081 135.545 425.45 135.489 425.786 135.375C426.121 135.261 426.408 135.091 426.646 134.864C426.885 134.636 427.067 134.358 427.192 134.028L430.55 134.25C430.379 135.057 430.03 135.761 429.501 136.364C428.979 136.96 428.303 137.426 427.473 137.761C426.649 138.091 425.697 138.256 424.618 138.256ZM443.888 128.642L440.564 128.847C440.507 128.562 440.385 128.307 440.197 128.08C440.01 127.847 439.763 127.662 439.456 127.526C439.155 127.384 438.794 127.312 438.374 127.312C437.811 127.312 437.337 127.432 436.95 127.67C436.564 127.903 436.371 128.216 436.371 128.608C436.371 128.92 436.496 129.185 436.746 129.401C436.996 129.616 437.425 129.79 438.033 129.92L440.402 130.398C441.675 130.659 442.624 131.08 443.249 131.659C443.874 132.239 444.186 133 444.186 133.943C444.186 134.801 443.933 135.554 443.428 136.202C442.928 136.849 442.24 137.355 441.365 137.719C440.496 138.077 439.493 138.256 438.357 138.256C436.624 138.256 435.243 137.895 434.214 137.173C433.192 136.446 432.592 135.457 432.416 134.207L435.987 134.02C436.095 134.548 436.357 134.952 436.771 135.23C437.186 135.503 437.717 135.639 438.365 135.639C439.001 135.639 439.513 135.517 439.899 135.273C440.291 135.023 440.49 134.702 440.496 134.31C440.49 133.98 440.351 133.71 440.078 133.5C439.805 133.284 439.385 133.119 438.817 133.006L436.55 132.554C435.271 132.298 434.32 131.855 433.695 131.224C433.075 130.594 432.766 129.79 432.766 128.812C432.766 127.972 432.993 127.247 433.447 126.639C433.908 126.031 434.553 125.562 435.382 125.233C436.217 124.903 437.195 124.739 438.314 124.739C439.967 124.739 441.268 125.088 442.217 125.787C443.172 126.486 443.729 127.437 443.888 128.642ZM450.81 120.545L450.478 132.767H447.359L447.018 120.545H450.81ZM448.918 138.222C448.356 138.222 447.873 138.023 447.469 137.625C447.066 137.222 446.867 136.739 446.873 136.176C446.867 135.619 447.066 135.142 447.469 134.744C447.873 134.347 448.356 134.148 448.918 134.148C449.458 134.148 449.933 134.347 450.342 134.744C450.751 135.142 450.958 135.619 450.964 136.176C450.958 136.551 450.859 136.895 450.665 137.207C450.478 137.514 450.231 137.761 449.924 137.949C449.617 138.131 449.282 138.222 448.918 138.222Z" fill="white"/>
</g>
<defs>
<linearGradient id="paint0_linear_1049_148429" x1="665.495" y1="126.261" x2="665.495" y2="323.749" gradientUnits="userSpaceOnUse">
<stop offset="0.3522" stop-color="#50AE42"/>
<stop offset="0.8459" stop-color="#A7E033"/>
</linearGradient>
<linearGradient id="paint1_linear_1049_148429" x1="-189.505" y1="87.2608" x2="-189.505" y2="284.749" gradientUnits="userSpaceOnUse">
<stop offset="0.3522" stop-color="#50AE42"/>
<stop offset="0.8459" stop-color="#A7E033"/>
</linearGradient>
<linearGradient id="paint2_linear_1049_148429" x1="-94.4917" y1="158.641" x2="15.2005" y2="158.641" gradientUnits="userSpaceOnUse">
<stop offset="0.1106" stop-color="#214A21"/>
<stop offset="0.6232" stop-color="#306B30"/>
</linearGradient>
<linearGradient id="paint3_linear_1049_148429" x1="553.792" y1="179.558" x2="553.792" y2="227.437" gradientUnits="userSpaceOnUse">
<stop stop-color="white"/>
<stop offset="0.9581" stop-color="#C9DBFF"/>
</linearGradient>
<linearGradient id="paint4_linear_1049_148429" x1="553.792" y1="179.558" x2="553.792" y2="227.437" gradientUnits="userSpaceOnUse">
<stop stop-color="white"/>
<stop offset="0.9581" stop-color="#C9DBFF"/>
</linearGradient>
<clipPath id="clip0_1049_148429">
<path d="M0 16C0 7.16344 7.16344 0 16 0H562C570.837 0 578 7.16344 578 16V178H0V16Z" fill="white"/>
</clipPath>
</defs>
</svg>
