<svg width="75" height="65" viewBox="0 0 75 65" fill="none" xmlns="http://www.w3.org/2000/svg">
<path opacity="0.2" d="M4.83253 1.57227H51.4675C54.1255 1.57227 56.1794 3.74696 56.1794 6.28409V33.4677C56.1794 34.4342 56.6626 35.4008 57.5083 35.884L73.4561 45.791H58.9581C57.3875 45.791 56.0585 47.1199 56.0585 48.6905V60.2889C56.0585 62.9468 53.8839 65.0007 51.3467 65.0007H4.71171C2.05375 65.0007 -0.0001119 62.826 -0.0001119 60.2889V6.28409C-0.0001119 3.62614 2.17458 1.57227 4.83253 1.57227Z" fill="black"/>
<path d="M6.28269 0H52.9177C55.5757 0 57.6295 2.17469 57.6295 4.71182V31.8954C57.6295 32.862 58.1128 33.8285 58.9585 34.3118L74.9062 44.2187H60.5291C58.9585 44.2187 57.6295 45.5477 57.6295 47.1183V58.7166C57.6295 61.3746 55.4548 63.4284 52.9177 63.4284H6.28269C3.62474 63.4284 1.57087 61.2538 1.57087 58.7166V4.71182C1.57087 2.17469 3.62474 0 6.28269 0Z" fill="#FFC01F"/>
<path d="M17.8796 21.6259H33.4648L32.4983 17.8806C32.2567 16.7933 31.2902 16.0684 30.2028 16.0684H21.3832C20.2959 16.0684 19.3294 16.7933 19.0877 17.8806L17.8796 21.6259Z" fill="#0B317A"/>
<path d="M12.3225 47.4813H46.7551C48.2049 47.4813 49.4131 46.2732 49.4131 44.8234V23.3181C49.4131 21.8683 48.2049 20.6602 46.7551 20.6602H12.3225C10.8727 20.6602 9.6646 21.8683 9.6646 23.3181V44.7026C9.6646 46.2732 10.8727 47.4813 12.3225 47.4813Z" fill="#1359DE"/>
<path d="M12.3225 20.7812H46.7551C48.2049 20.7812 49.4131 21.9894 49.4131 23.4392V27.5469H9.6646V23.3184C9.6646 21.8686 10.8727 20.7812 12.3225 20.7812Z" fill="white"/>
<path d="M25.6125 44.5798C19.9409 44.5798 15.3431 39.982 15.3431 34.3104C15.3431 28.6388 19.9409 24.041 25.6125 24.041C31.2841 24.041 35.8818 28.6388 35.8818 34.3104C35.8818 39.982 31.2841 44.5798 25.6125 44.5798Z" fill="#0B317A"/>
<path d="M25.6129 39.2643C22.8772 39.2643 20.6595 37.0466 20.6595 34.3109C20.6595 31.5752 22.8772 29.3574 25.6129 29.3574C28.3487 29.3574 30.5664 31.5752 30.5664 34.3109C30.5664 37.0466 28.3487 39.2643 25.6129 39.2643Z" fill="white"/>
<path d="M40.7139 21.9883V44.5809" stroke="#0B317A" stroke-width="0.254197" stroke-miterlimit="10"/>
</svg>
