<svg width="66" height="66" viewBox="0 0 66 66" fill="none" xmlns="http://www.w3.org/2000/svg">
<g clip-path="url(#clip0_1050_149381)">
<path d="M38.6719 1.93359V5.92969C38.6719 7.0123 37.8214 7.86328 36.7383 7.86328C35.6552 7.86328 34.8047 7.0123 34.8047 5.92969V1.93359C34.8047 0.850479 35.6552 0 36.7383 0C37.8214 0 38.6719 0.850479 38.6719 1.93359Z" fill="#FFD400"/>
<path d="M45.6064 11.1639C45.1115 11.1639 44.617 10.9751 44.2393 10.5974C43.484 9.84212 43.484 8.61852 44.2393 7.8632L46.9736 5.12898C47.7289 4.37367 48.9525 4.37367 49.7078 5.12898C50.4631 5.88429 50.4631 7.10789 49.7078 7.8632L46.9736 10.5974C46.5959 10.9751 46.1014 11.1639 45.6064 11.1639V11.1639Z" fill="#FDBF00"/>
<path d="M27.8709 11.1639C27.376 11.1639 26.8815 10.9751 26.5038 10.5974L23.7696 7.8632C23.0143 7.10789 23.0143 5.88429 23.7696 5.12898C24.5249 4.37367 25.7485 4.37367 26.5038 5.12898L29.2381 7.8632C29.9934 8.61852 29.9934 9.84212 29.2381 10.5974C28.8604 10.9751 28.3659 11.1639 27.8709 11.1639Z" fill="#FFD400"/>
<path d="M53.6761 48.6002C56.0739 48.6002 58.0075 50.5338 58.0075 52.9317C58.0075 55.3678 56.0739 57.2239 53.6761 57.2239H49.8089C52.2067 57.2239 54.1403 59.235 54.1403 61.6711C54.1403 64.069 52.2067 66.0026 49.8089 66.0026C49.8089 66.0026 41.8041 66.0026 36.738 66.0026H32.6774C27.4567 66.0026 22.3136 65.1516 17.3633 63.5277L16.5898 63.2568L13.1094 34.8329C27.9593 24.5074 31.5561 27.8977 33.7988 16.6828L34.4559 13.5121C34.6881 12.4289 35.6936 11.733 36.738 12.0039H36.8543C40.2185 12.932 42.5388 16.1159 42.5388 19.5963C42.5388 22.2646 41.4174 24.8946 40.2955 27.4077C39.7542 28.6842 39.2129 29.9219 38.8262 31.1979H53.6761C56.0739 31.1979 58.0075 33.1315 58.0075 35.5293C58.0075 37.9655 56.0739 39.8991 53.6761 39.8991C56.0739 39.8991 58.0075 41.8327 58.0075 44.2688C58.0075 46.6666 56.0739 48.6002 53.6761 48.6002V48.6002Z" fill="#FFCEBF"/>
<path d="M36.7383 7.86328V0C37.8214 0 38.6719 0.850479 38.6719 1.93359V5.92969C38.6719 7.0123 37.8214 7.86328 36.7383 7.86328Z" fill="#FDBF00"/>
<path d="M53.6764 48.5963C56.0742 48.5963 58.0078 50.5299 58.0078 52.9277C58.0078 55.3639 56.0742 57.2199 53.6764 57.2199H49.8092C52.207 57.2199 54.1406 59.231 54.1406 61.6672C54.1406 64.065 52.207 65.9986 49.8092 65.9986C49.8092 65.9986 41.8044 65.9986 36.7383 65.9986V12H36.8546C40.2188 12.928 42.5391 16.1119 42.5391 19.5924C42.5391 22.2606 41.4177 24.8906 40.2958 27.4038C39.7545 28.6803 39.2132 29.918 38.8265 31.1939H53.6764C56.0742 31.1939 58.0078 33.1275 58.0078 35.5254C58.0078 37.9615 56.0742 39.8951 53.6764 39.8951C56.0742 39.8951 58.0078 41.8287 58.0078 44.2648C58.0078 46.6627 56.0742 48.5963 53.6764 48.5963V48.5963Z" fill="#FFBFAB"/>
<path d="M13.5352 66H1.93359C0.865082 66 0 65.1349 0 64.0664V29.2617C0 28.1932 0.865082 27.3281 1.93359 27.3281H13.5352C16.7336 27.3281 19.3359 29.9304 19.3359 33.1289V60.1992C19.3359 63.3977 16.7336 66 13.5352 66Z" fill="#131620"/>
<path d="M11.6016 56.332C11.6016 57.4 10.736 58.2656 9.66797 58.2656C8.59996 58.2656 7.73438 57.4 7.73438 56.332C7.73438 55.264 8.59996 54.3984 9.66797 54.3984C10.736 54.3984 11.6016 55.264 11.6016 56.332Z" fill="#68544F"/>
</g>
<defs>
<clipPath id="clip0_1050_149381">
<rect width="66" height="66" fill="white"/>
</clipPath>
</defs>
</svg>
